# Blender v2.90.0 OBJ File: 'Roof01_house5.blend'
# www.blender.org
mtllib Roof01_house5.mtl
o Roof01_house05_Cube.001
v 1.411025 2.490964 -1.591162
v 1.411025 -2.821179 1.431322
v -1.411025 -2.821179 1.431322
v -1.411025 2.490964 -1.591162
v 1.411025 2.472110 -1.250682
v 1.411025 -2.821179 1.771802
v -1.411025 -2.821179 1.771802
v -1.411025 2.472110 -1.250682
v 1.411025 2.224628 -1.440038
v -1.411025 2.224628 -1.440038
v 1.411025 2.207446 -1.099557
v -1.411025 2.207446 -1.099557
v 1.411025 2.490964 -1.896916
v -1.411025 2.490964 -1.896916
v 1.411025 2.224628 -1.896916
v -1.411025 2.224628 -1.896916
v 1.411025 1.383660 -0.961478
v 1.411025 0.542692 -0.482918
v 1.411025 -0.298275 -0.004358
v 1.411025 -1.139243 0.474202
v 1.411025 -1.980211 0.952762
v -1.411025 1.383660 -0.961478
v -1.411025 0.542692 -0.482918
v -1.411025 -0.298275 -0.004358
v -1.411025 -1.139243 0.474202
v -1.411025 -1.980211 0.952762
v 1.411025 1.369341 -0.620997
v 1.411025 0.531237 -0.142437
v 1.411025 -0.306867 0.336123
v 1.411025 -1.144971 0.814682
v 1.411025 -1.983075 1.293242
v -1.411025 1.369341 -0.620997
v -1.411025 0.531237 -0.142437
v -1.411025 -0.306867 0.336123
v -1.411025 -1.144971 0.814682
v -1.411025 -1.983075 1.293242
v 1.411025 1.425709 -0.985406
v -1.411025 1.425709 -0.985406
v 1.411025 1.411247 -0.644925
v -1.411025 1.411247 -0.644925
v 1.411025 0.584847 -0.506906
v -1.411025 0.584847 -0.506906
v 1.411025 0.573248 -0.166426
v -1.411025 0.573248 -0.166426
v 1.411025 -0.256227 -0.028286
v -1.411025 -0.256227 -0.028286
v 1.411025 -0.264962 0.312195
v -1.411025 -0.264962 0.312195
v 1.411025 -1.097195 0.450274
v -1.411025 -1.097195 0.450274
v 1.411025 -1.103065 0.790755
v -1.411025 -1.103065 0.790755
v 1.411025 -1.930780 0.924633
v -1.411025 -1.930780 0.924633
v 1.411025 -1.933812 1.265113
v -1.411025 -1.933812 1.265113
v 1.411025 1.411247 -0.678427
v 1.411025 1.369341 -0.654500
v 1.411025 0.573248 -0.199928
v 1.411025 0.531237 -0.175940
v 1.411025 -0.264962 0.278692
v 1.411025 -0.306867 0.302620
v 1.411025 -1.103065 0.757252
v 1.411025 -1.144971 0.781180
v 1.411025 -1.933812 1.231611
v 1.411025 -1.983075 1.259740
v -1.411025 1.411247 -0.678427
v -1.411025 1.369341 -0.654500
v -1.411025 0.573248 -0.199928
v -1.411025 0.531237 -0.175940
v -1.411025 -0.264962 0.278693
v -1.411025 -0.306867 0.302620
v -1.411025 -1.103065 0.757252
v -1.411025 -1.144971 0.781180
v -1.411025 -1.933812 1.231611
v -1.411025 -1.983075 1.259740
vt 0.625000 0.750000
vt 0.625000 0.500000
vt 0.625000 0.500000
vt 0.612500 0.750000
vt 0.612500 0.500000
vt 0.612500 0.500000
vt 0.375000 0.750000
vt 0.414583 0.750000
vt 0.414583 0.750000
vt 0.375000 0.500000
vt 0.375000 0.750000
vt 0.414583 0.500000
vt 0.612500 0.750000
vt 0.612500 0.500000
vt 0.625000 0.750000
vt 0.574896 0.500000
vt 0.574896 0.500000
vt 0.574896 0.750000
vt 0.625000 0.500000
vt 0.612500 0.750000
vt 0.625000 0.750000
vt 0.414583 0.500000
vt 0.375000 0.500000
vt 0.454167 0.500000
vt 0.416910 0.750000
vt 0.416910 0.500000
vt 0.493750 0.500000
vt 0.456146 0.750000
vt 0.456146 0.500000
vt 0.533333 0.500000
vt 0.495729 0.750000
vt 0.495729 0.500000
vt 0.572917 0.500000
vt 0.535318 0.750000
vt 0.535317 0.500000
vt 0.416910 0.500000
vt 0.456146 0.500000
vt 0.495729 0.500000
vt 0.535318 0.500000
vt 0.572917 0.750000
vt 0.574896 0.750000
vt 0.533333 0.750000
vt 0.535318 0.750000
vt 0.493750 0.750000
vt 0.495729 0.750000
vt 0.454167 0.750000
vt 0.456146 0.750000
vt 0.416910 0.750000
vt 0.572917 0.750000
vt 0.572917 0.500000
vt 0.456146 0.500000
vt 0.533333 0.750000
vt 0.533333 0.500000
vt 0.493750 0.750000
vt 0.493750 0.500000
vt 0.495729 0.500000
vt 0.454167 0.750000
vt 0.454167 0.500000
vt 0.574896 0.500000
vt 0.572917 0.750000
vt 0.572917 0.500000
vt 0.535317 0.500000
vt 0.533333 0.750000
vt 0.533333 0.500000
vt 0.493750 0.750000
vt 0.493750 0.500000
vt 0.454167 0.750000
vt 0.454167 0.500000
vt 0.416910 0.500000
vt 0.414583 0.750000
vt 0.414583 0.500000
vt 0.456146 0.750000
vt 0.495729 0.750000
vt 0.574896 0.750000
vt 0.535318 0.750000
vt 0.416910 0.750000
vn 0.0000 0.9985 0.0553
vn 0.0000 0.4959 0.8684
vn 1.0000 -0.0000 0.0000
vn -1.0000 0.0000 0.0000
vn 0.0000 -1.0000 0.0000
vn 0.0000 -0.4946 -0.8691
vn 0.0000 0.0000 -1.0000
vn 0.0000 1.0000 0.0000
usemtl Roof_house05
s off
f 4/1/1 5/2/1 1/3/1
f 5/2/2 12/4/2 11/5/2
f 9/6/3 5/2/3 11/5/3
f 3/7/4 36/8/4 26/9/4
f 2/10/5 7/11/5 3/7/5
f 21/12/6 3/7/6 26/9/6
f 10/13/5 15/14/5 9/6/5
f 10/13/4 8/15/4 4/1/4
f 37/16/3 11/5/3 39/17/3
f 11/5/2 40/18/2 39/17/2
f 13/19/7 16/20/7 14/21/7
f 1/3/3 15/14/3 13/19/3
f 1/3/8 14/21/8 4/1/8
f 4/1/4 16/20/4 10/13/4
f 31/22/2 7/11/2 6/23/2
f 30/24/2 56/25/2 55/26/2
f 29/27/2 52/28/2 51/29/2
f 28/30/2 48/31/2 47/32/2
f 27/33/2 44/34/2 43/35/2
f 2/10/3 31/22/3 6/23/3
f 53/36/3 30/24/3 55/26/3
f 49/37/3 29/27/3 51/29/3
f 45/38/3 28/30/3 47/32/3
f 41/39/3 27/33/3 43/35/3
f 37/16/6 22/40/6 38/41/6
f 41/39/6 23/42/6 42/43/6
f 45/38/6 24/44/6 46/45/6
f 49/37/6 25/46/6 50/47/6
f 53/36/6 26/9/6 54/48/6
f 38/41/4 12/4/4 10/13/4
f 9/6/6 38/41/6 10/13/6
f 42/43/4 32/49/4 22/40/4
f 17/50/6 42/43/6 22/40/6
f 52/28/5 63/51/5 51/29/5
f 46/45/4 33/52/4 23/42/4
f 18/53/6 46/45/6 23/42/6
f 50/47/4 34/54/4 24/44/4
f 19/55/6 50/47/6 24/44/6
f 48/31/5 61/56/5 47/32/5
f 54/48/4 35/57/4 25/46/4
f 20/58/6 54/48/6 25/46/6
f 57/59/2 68/60/2 58/61/2
f 59/62/2 70/63/2 60/64/2
f 61/56/2 72/65/2 62/66/2
f 63/51/2 74/67/2 64/68/2
f 65/69/2 76/70/2 66/71/2
f 56/25/5 65/69/5 55/26/5
f 31/22/8 76/70/8 36/8/8
f 30/24/8 74/67/8 35/57/8
f 29/27/8 72/65/8 34/54/8
f 28/30/8 70/63/8 33/52/8
f 40/18/5 57/59/5 39/17/5
f 27/33/8 68/60/8 32/49/8
f 44/34/5 59/62/5 43/35/5
f 4/1/1 8/15/1 5/2/1
f 5/2/2 8/15/2 12/4/2
f 9/6/3 1/3/3 5/2/3
f 3/7/4 7/11/4 36/8/4
f 2/10/5 6/23/5 7/11/5
f 21/12/6 2/10/6 3/7/6
f 10/13/5 16/20/5 15/14/5
f 10/13/4 12/4/4 8/15/4
f 37/16/3 9/6/3 11/5/3
f 11/5/2 12/4/2 40/18/2
f 13/19/7 15/14/7 16/20/7
f 1/3/3 9/6/3 15/14/3
f 1/3/8 13/19/8 14/21/8
f 4/1/4 14/21/4 16/20/4
f 31/22/2 36/8/2 7/11/2
f 30/24/2 35/57/2 56/25/2
f 29/27/2 34/54/2 52/28/2
f 28/30/2 33/52/2 48/31/2
f 27/33/2 32/49/2 44/34/2
f 2/10/3 21/12/3 31/22/3
f 53/36/3 20/58/3 30/24/3
f 49/37/3 19/55/3 29/27/3
f 45/38/3 18/53/3 28/30/3
f 41/39/3 17/50/3 27/33/3
f 37/16/6 17/50/6 22/40/6
f 41/39/6 18/53/6 23/42/6
f 45/38/6 19/55/6 24/44/6
f 49/37/6 20/58/6 25/46/6
f 53/36/6 21/12/6 26/9/6
f 38/41/4 40/18/4 12/4/4
f 9/6/6 37/16/6 38/41/6
f 42/43/4 44/34/4 32/49/4
f 17/50/6 41/39/6 42/43/6
f 52/28/5 73/72/5 63/51/5
f 46/45/4 48/31/4 33/52/4
f 18/53/6 45/38/6 46/45/6
f 50/47/4 52/28/4 34/54/4
f 19/55/6 49/37/6 50/47/6
f 48/31/5 71/73/5 61/56/5
f 54/48/4 56/25/4 35/57/4
f 20/58/6 53/36/6 54/48/6
f 57/59/2 67/74/2 68/60/2
f 59/62/2 69/75/2 70/63/2
f 61/56/2 71/73/2 72/65/2
f 63/51/2 73/72/2 74/67/2
f 65/69/2 75/76/2 76/70/2
f 56/25/5 75/76/5 65/69/5
f 31/22/8 66/71/8 76/70/8
f 30/24/8 64/68/8 74/67/8
f 29/27/8 62/66/8 72/65/8
f 28/30/8 60/64/8 70/63/8
f 40/18/5 67/74/5 57/59/5
f 27/33/8 58/61/8 68/60/8
f 44/34/5 69/75/5 59/62/5
