# Blender v2.90.0 OBJ File: 'TopWall01_house2.blend'
# www.blender.org
mtllib TopWall01_house2.mtl
o TopWall01_house02_Cube.001
v -0.165372 -1.547704 2.404918
v 0.176332 -1.547704 2.404918
v -0.165372 -1.547704 -2.404918
v 0.176332 -1.547704 -2.404918
v 0.176332 1.452296 0.144295
v -0.165372 1.452296 0.144295
v 0.176332 1.452296 -0.144295
v -0.165372 1.452296 -0.144295
v -0.165372 -1.047704 2.028147
v -0.165372 -0.547704 1.651377
v -0.165372 -0.047703 1.274606
v -0.165372 0.452297 0.897836
v -0.165372 0.952296 0.521066
v -0.165372 0.952296 -0.521066
v -0.165372 0.452297 -0.897836
v -0.165372 -0.047703 -1.274606
v -0.165372 -0.547704 -1.651377
v -0.165372 -1.047704 -2.028147
v 0.176332 0.952296 -0.521066
v 0.176332 0.452297 -0.897836
v 0.176332 -0.047703 -1.274606
v 0.176332 -0.547704 -1.651377
v 0.176332 -1.047704 -2.028147
v 0.176332 0.952296 0.521066
v 0.176332 0.452297 0.897836
v 0.176332 -0.047703 1.274606
v 0.176332 -0.547704 1.651377
v 0.176332 -1.047704 2.028147
v 0.204967 -1.547704 2.404918
v 0.204967 -1.547704 -2.404918
v 0.188727 -1.047704 -2.028147
v 0.188727 -1.047704 2.028147
v 0.201767 -0.547704 -1.651377
v 0.201767 -0.547704 1.651377
v 0.224034 -0.047703 -1.274606
v 0.224034 -0.047703 1.274606
v 0.208587 0.452297 -0.897836
v 0.208587 0.452297 0.897836
v 0.218413 0.952296 -0.521066
v 0.218413 0.952296 0.521066
v -0.178137 0.952296 0.521066
v -0.178137 0.952296 -0.521066
v -0.193202 0.452297 0.897836
v -0.193202 0.452297 -0.897836
v -0.204121 -0.047703 1.274606
v -0.204121 -0.047703 -1.274606
v -0.217231 -0.547704 1.651377
v -0.217231 -0.547704 -1.651377
v -0.233868 -1.047704 2.028147
v -0.233868 -1.047704 -2.028147
v -0.260363 -1.547704 2.404918
v -0.260363 -1.547704 -2.404918
v 0.176332 -1.047704 -2.028147
v 0.204967 -1.098939 -2.066755
v 0.204967 -1.098939 2.066755
v 0.176332 -1.047704 2.028147
v 0.176332 -0.547704 -1.651377
v 0.188727 -0.598939 -1.689985
v 0.188727 -0.598939 1.689985
v 0.176332 -0.547704 1.651377
v 0.176332 -0.047703 -1.274606
v 0.201767 -0.098939 -1.313215
v 0.201767 -0.098939 1.313215
v 0.176332 -0.047703 1.274606
v 0.176332 0.452297 -0.897836
v 0.224034 0.401061 -0.936444
v 0.224034 0.401061 0.936444
v 0.176332 0.452297 0.897836
v 0.176332 0.952296 -0.521066
v 0.208587 0.901061 -0.559674
v 0.208587 0.901061 0.559674
v 0.176332 0.952296 0.521066
v 0.218413 1.401061 0.182903
v 0.176332 1.452296 0.144295
v 0.176332 1.452296 -0.144295
v 0.218413 1.401061 -0.182903
v -0.165372 1.452296 0.144295
v -0.178137 1.401061 0.182903
v -0.178137 1.401061 -0.182903
v -0.165372 1.452296 -0.144295
v -0.165372 0.952296 0.521066
v -0.193202 0.901061 0.559674
v -0.193202 0.901061 -0.559674
v -0.165372 0.952296 -0.521066
v -0.165372 0.452297 0.897836
v -0.204121 0.401061 0.936444
v -0.204121 0.401061 -0.936444
v -0.165372 0.452297 -0.897836
v -0.165995 -0.047703 1.274606
v -0.217231 -0.098939 1.313215
v -0.217231 -0.098939 -1.313215
v -0.165995 -0.047703 -1.274606
v -0.182632 -0.547704 1.651377
v -0.233868 -0.598939 1.689985
v -0.233868 -0.598939 -1.689985
v -0.182632 -0.547704 -1.651377
v -0.260363 -1.098939 -2.066755
v -0.209128 -1.047704 -2.028147
v -0.209128 -1.047704 2.028147
v -0.260363 -1.098939 2.066755
vt 0.000000 0.000000
vt 0.000000 0.000000
vt 0.000000 0.000000
vt 0.000000 0.000000
vt 0.000000 0.000000
vt 0.000000 0.000000
vt 0.000000 0.000000
vt 0.000000 0.000000
vt 0.000000 0.000000
vt 0.000000 0.000000
vt 0.000000 0.000000
vt 0.000000 0.000000
vt 0.000000 0.000000
vt 0.000000 0.000000
vt 0.000000 0.000000
vt 0.000000 0.000000
vt 0.000000 0.000000
vt 0.000000 0.000000
vt 0.000000 0.000000
vt 0.000000 0.000000
vt 0.000000 0.000000
vt 0.000000 0.000000
vt 0.000000 0.000000
vt 0.000000 0.000000
vt 0.000000 0.000000
vt 0.000000 0.000000
vt 0.000000 0.000000
vt 0.000000 0.000000
vt 0.000000 0.000000
vt 0.000000 0.000000
vt 0.000000 0.000000
vt 0.000000 0.000000
vt 0.000000 0.000000
vt 0.000000 0.000000
vt 0.000000 0.000000
vt 0.000000 0.000000
vt 0.000000 0.000000
vt 0.000000 0.000000
vt 0.000000 0.000000
vt 0.000000 0.000000
vt 0.000000 0.000000
vt 0.000000 0.000000
vt 0.000000 0.000000
vt 0.000000 0.000000
vt 0.000000 0.000000
vt 0.000000 0.000000
vt 0.000000 0.000000
vt 0.000000 0.000000
vt 0.000000 0.000000
vt 0.000000 0.000000
vt 0.000000 0.000000
vt 0.000000 0.000000
vt 0.000000 0.000000
vt 0.000000 0.000000
vt 0.000000 0.000000
vt 0.000000 0.000000
vt 0.000000 0.000000
vt 0.000000 0.000000
vt 0.000000 0.000000
vt 0.000000 0.000000
vt 0.000000 0.000000
vt 0.000000 0.000000
vt 0.000000 0.000000
vt 0.000000 0.000000
vt 0.000000 0.000000
vt 0.000000 0.000000
vt 0.000000 0.000000
vt 0.000000 0.000000
vt 0.000000 0.000000
vt 0.000000 0.000000
vt 0.000000 0.000000
vt 0.000000 0.000000
vt 0.000000 0.000000
vt 0.000000 0.000000
vt 0.000000 0.000000
vt 0.000000 0.000000
vt 0.000000 0.000000
vt 0.000000 0.000000
vt 0.000000 0.000000
vt 0.000000 0.000000
vt 0.000000 0.000000
vt 0.000000 0.000000
vt 0.000000 0.000000
vt 0.000000 0.000000
vt 0.000000 0.000000
vt 0.000000 0.000000
vt 0.000000 0.000000
vt 0.000000 0.000000
vt 0.000000 0.000000
vt 0.000000 0.000000
vt 0.000000 0.000000
vt 0.000000 0.000000
vt 0.000000 0.000000
vt 0.000000 0.000000
vt 0.000000 0.000000
vt 0.000000 0.000000
vt 0.000000 0.000000
vt 0.000000 0.000000
vt 0.000000 0.000000
vt 0.000000 0.000000
vn 0.0000 -1.0000 0.0000
vn 0.0000 1.0000 0.0000
vn 0.0000 0.6018 -0.7986
vn -0.0000 0.6018 0.7986
vn 0.0000 0.0000 1.0000
vn 1.0000 -0.0000 0.0000
vn -1.0000 -0.0000 0.0000
vn 0.8729 0.4879 0.0000
vn 0.9720 0.2351 0.0000
vn 0.8957 0.4446 0.0000
vn 0.7319 0.6814 0.0000
vn 0.8463 0.5328 0.0000
vn 0.7728 0.6347 0.0000
vn -0.9703 0.2418 0.0000
vn -0.8787 0.4773 0.0000
vn -0.7976 0.6032 0.0000
vn -0.7071 0.7071 0.0000
usemtl Cream_House02
s off
f 3/1/1 2/2/1 1/3/1
f 5/4/2 8/5/2 6/6/2
f 14/7/3 79/8/3 80/9/3
f 14/7/3 7/10/3 19/11/3
f 76/12/3 39/13/3 19/11/3
f 24/14/4 6/6/4 13/15/4
f 2/2/4 9/16/4 1/3/4
f 9/16/4 27/17/4 10/18/4
f 27/17/4 11/19/4 10/18/4
f 26/20/4 12/21/4 11/19/4
f 12/21/4 24/14/4 13/15/4
f 2/2/4 55/22/4 56/23/4
f 28/24/4 59/25/4 60/26/4
f 22/27/1 34/28/1 27/17/1
f 70/29/3 37/30/3 20/31/3
f 20/31/1 38/32/1 25/33/1
f 3/1/3 23/34/3 4/35/3
f 18/36/3 22/27/3 23/34/3
f 17/37/3 21/38/3 22/27/3
f 16/39/3 20/31/3 21/38/3
f 15/40/3 19/11/3 20/31/3
f 1/3/1 52/41/1 3/1/1
f 9/16/1 50/42/1 18/36/1
f 17/37/3 48/43/3 91/44/3
f 11/19/1 46/45/1 16/39/1
f 86/46/4 45/47/4 11/19/4
f 23/34/5 56/23/5 53/48/5
f 54/49/3 30/50/3 4/35/3
f 4/35/1 29/51/1 2/2/1
f 58/52/3 31/53/3 23/34/3
f 22/27/5 60/26/5 57/54/5
f 31/53/6 59/25/6 32/55/6
f 23/34/1 32/55/1 28/24/1
f 62/56/3 33/57/3 22/27/3
f 21/38/5 64/58/5 61/59/5
f 33/57/6 63/60/6 34/28/6
f 66/61/3 35/62/3 21/38/3
f 27/17/4 63/60/4 64/58/4
f 20/31/5 68/63/5 65/64/5
f 26/20/4 67/65/4 68/63/4
f 21/38/1 36/66/1 26/20/1
f 35/62/6 67/65/6 36/66/6
f 19/11/5 72/67/5 69/68/5
f 37/30/6 71/69/6 38/32/6
f 25/33/4 71/69/4 72/67/4
f 7/10/5 74/70/5 75/71/5
f 24/14/4 73/72/4 74/70/4
f 19/11/1 40/73/1 24/14/1
f 39/13/6 73/72/6 40/73/6
f 42/74/7 78/75/7 79/8/7
f 78/75/4 41/76/4 13/15/4
f 13/15/1 42/74/1 14/7/1
f 6/6/5 80/9/5 77/77/5
f 82/78/4 43/79/4 12/21/4
f 13/15/5 84/80/5 81/81/5
f 15/40/3 83/82/3 84/80/3
f 43/79/7 83/82/7 44/83/7
f 12/21/1 44/83/1 15/40/1
f 12/21/5 88/84/5 85/85/5
f 11/19/4 89/86/4 90/87/4
f 16/39/3 87/88/3 88/84/3
f 45/47/7 87/88/7 46/45/7
f 16/39/2 89/86/2 11/19/2
f 47/89/7 91/44/7 48/43/7
f 10/18/1 48/43/1 17/37/1
f 10/18/4 93/90/4 94/91/4
f 17/37/2 93/90/2 10/18/2
f 3/1/3 52/41/3 97/92/3
f 18/36/3 50/42/3 95/93/3
f 49/94/7 95/93/7 50/42/7
f 18/36/2 99/95/2 9/16/2
f 9/16/4 99/95/4 100/96/4
f 51/97/7 97/92/7 52/41/7
f 56/23/8 54/49/8 53/48/8
f 60/26/9 58/52/9 57/54/9
f 61/59/10 63/60/10 62/56/10
f 68/63/11 66/61/11 65/64/11
f 72/67/12 70/29/12 69/68/12
f 76/12/13 74/70/13 73/72/13
f 80/9/14 78/75/14 77/77/14
f 84/80/15 82/78/15 81/81/15
f 88/84/16 86/46/16 85/85/16
f 92/98/17 90/87/17 89/86/17
f 96/99/17 94/91/17 93/90/17
f 98/100/17 100/96/17 99/95/17
f 30/50/6 55/22/6 29/51/6
f 3/1/1 4/35/1 2/2/1
f 5/4/2 7/10/2 8/5/2
f 80/9/5 8/5/5 14/7/5
f 14/7/3 42/74/3 79/8/3
f 14/7/3 8/5/3 7/10/3
f 19/11/5 7/10/5 75/71/5
f 75/71/3 76/12/3 19/11/3
f 24/14/4 5/4/4 6/6/4
f 2/2/4 28/24/4 9/16/4
f 9/16/4 28/24/4 27/17/4
f 27/17/4 26/20/4 11/19/4
f 26/20/4 25/33/4 12/21/4
f 12/21/4 25/33/4 24/14/4
f 56/23/5 28/24/5 2/2/5
f 2/2/4 29/51/4 55/22/4
f 60/26/5 27/17/5 28/24/5
f 28/24/4 32/55/4 59/25/4
f 22/27/1 33/57/1 34/28/1
f 20/31/5 19/11/5 69/68/5
f 69/68/3 70/29/3 20/31/3
f 20/31/1 37/30/1 38/32/1
f 3/1/3 18/36/3 23/34/3
f 18/36/3 17/37/3 22/27/3
f 17/37/3 16/39/3 21/38/3
f 16/39/3 15/40/3 20/31/3
f 15/40/3 14/7/3 19/11/3
f 1/3/1 51/97/1 52/41/1
f 9/16/1 49/94/1 50/42/1
f 92/98/3 16/39/3 91/44/3
f 16/39/3 17/37/3 91/44/3
f 11/19/1 45/47/1 46/45/1
f 11/19/5 12/21/5 85/85/5
f 85/85/4 86/46/4 11/19/4
f 23/34/5 28/24/5 56/23/5
f 4/35/5 23/34/5 53/48/5
f 53/48/3 54/49/3 4/35/3
f 4/35/1 30/50/1 29/51/1
f 23/34/5 22/27/5 57/54/5
f 57/54/3 58/52/3 23/34/3
f 22/27/5 27/17/5 60/26/5
f 31/53/6 58/52/6 59/25/6
f 23/34/1 31/53/1 32/55/1
f 22/27/5 21/38/5 61/59/5
f 61/59/3 62/56/3 22/27/3
f 21/38/5 26/20/5 64/58/5
f 33/57/6 62/56/6 63/60/6
f 21/38/5 20/31/5 65/64/5
f 65/64/3 66/61/3 21/38/3
f 64/58/5 26/20/5 27/17/5
f 27/17/4 34/28/4 63/60/4
f 20/31/5 25/33/5 68/63/5
f 68/63/5 25/33/5 26/20/5
f 26/20/4 36/66/4 67/65/4
f 21/38/1 35/62/1 36/66/1
f 35/62/6 66/61/6 67/65/6
f 19/11/5 24/14/5 72/67/5
f 37/30/6 70/29/6 71/69/6
f 72/67/5 24/14/5 25/33/5
f 25/33/4 38/32/4 71/69/4
f 7/10/5 5/4/5 74/70/5
f 74/70/5 5/4/5 24/14/5
f 24/14/4 40/73/4 73/72/4
f 19/11/1 39/13/1 40/73/1
f 39/13/6 76/12/6 73/72/6
f 42/74/7 41/76/7 78/75/7
f 13/15/5 6/6/5 77/77/5
f 77/77/4 78/75/4 13/15/4
f 13/15/1 41/76/1 42/74/1
f 6/6/5 8/5/5 80/9/5
f 12/21/5 13/15/5 81/81/5
f 81/81/4 82/78/4 12/21/4
f 13/15/5 14/7/5 84/80/5
f 84/80/5 14/7/5 15/40/5
f 15/40/3 44/83/3 83/82/3
f 43/79/7 82/78/7 83/82/7
f 12/21/1 43/79/1 44/83/1
f 12/21/5 15/40/5 88/84/5
f 47/89/4 10/18/4 90/87/4
f 10/18/4 11/19/4 90/87/4
f 88/84/5 15/40/5 16/39/5
f 16/39/3 46/45/3 87/88/3
f 45/47/7 86/46/7 87/88/7
f 16/39/2 92/98/2 89/86/2
f 47/89/7 90/87/7 91/44/7
f 10/18/1 47/89/1 48/43/1
f 49/94/4 9/16/4 94/91/4
f 9/16/4 10/18/4 94/91/4
f 17/37/2 96/99/2 93/90/2
f 98/100/3 18/36/3 97/92/3
f 18/36/3 3/1/3 97/92/3
f 96/99/3 17/37/3 95/93/3
f 17/37/3 18/36/3 95/93/3
f 49/94/7 94/91/7 95/93/7
f 18/36/2 98/100/2 99/95/2
f 51/97/4 1/3/4 100/96/4
f 1/3/4 9/16/4 100/96/4
f 51/97/7 100/96/7 97/92/7
f 56/23/8 55/22/8 54/49/8
f 60/26/9 59/25/9 58/52/9
f 61/59/10 64/58/10 63/60/10
f 68/63/11 67/65/11 66/61/11
f 72/67/12 71/69/12 70/29/12
f 76/12/13 75/71/13 74/70/13
f 80/9/14 79/8/14 78/75/14
f 84/80/15 83/82/15 82/78/15
f 88/84/16 87/88/16 86/46/16
f 92/98/17 91/44/17 90/87/17
f 96/99/17 95/93/17 94/91/17
f 98/100/17 97/92/17 100/96/17
f 30/50/6 54/49/6 55/22/6
