# Blender v2.90.0 OBJ File: 'Wall02_house2.blend'
# www.blender.org
mtllib Wall02_house2.mtl
o Wall02_house02_Cube.004
v -0.170852 1.474200 2.525164
v 0.170852 1.846777 2.525164
v -0.170852 1.846777 2.525164
v 0.170852 1.474200 2.525164
v -0.170852 -1.825801 2.525164
v 0.170852 -1.825801 2.525164
v 0.170852 -1.495800 2.525164
v -0.170852 -1.495800 2.525164
v -0.170852 1.474200 -1.923934
v -0.170852 1.846777 -1.923934
v 0.170852 1.474200 -1.923934
v 0.170852 1.846777 -1.923934
v -0.170852 1.474200 0.480984
v -0.170852 1.846777 0.480984
v 0.170852 1.474200 0.480984
v 0.170852 1.846777 0.480984
v -0.170852 1.474200 -1.563197
v 0.170852 1.846777 -1.563197
v -0.170852 1.846777 -1.563197
v 0.170852 1.474200 -1.563197
v -0.170852 -1.825801 -1.563197
v -0.170852 -1.825801 -1.923934
v 0.170852 -1.825801 -1.923934
v 0.170852 -1.825801 -1.563197
v 0.170852 -1.495800 -1.563197
v -0.170852 -1.495800 -1.563197
v -0.170852 -1.495800 -1.923934
v 0.170852 -1.495800 -1.923934
v 0.170852 -1.825801 0.480984
v -0.170852 -1.825801 0.480984
v 0.170852 -1.495800 0.480984
v -0.170852 -1.495800 0.480984
v -0.130000 -1.501632 2.530577
v -0.130000 1.502879 2.530577
v -0.130000 -1.501632 -1.568610
v -0.130000 1.502879 -1.568610
v 0.130000 -1.501632 2.530577
v 0.130000 1.502879 2.530577
v 0.130000 -1.501632 -1.568610
v 0.130000 1.502879 -1.568610
vt 0.625000 0.000000
vt 0.375000 0.250000
vt 0.375000 0.000000
vt 0.625000 0.250000
vt 0.375000 0.500000
vt 0.625000 0.500000
vt 0.375000 0.750000
vt 0.625000 0.750000
vt 0.375000 1.000000
vt 0.125000 0.750000
vt 0.125000 0.500000
vt 0.875000 0.500000
vt 0.625000 1.000000
vt 0.875000 0.750000
vt 0.375000 0.018750
vt 0.375000 0.018750
vt 0.375000 0.018750
vt 0.625000 0.018750
vt 0.375000 0.125000
vt 0.375000 0.018750
vt 0.875000 0.625000
vt 0.625000 0.731250
vt 0.625000 0.625000
vt 0.375000 0.625000
vt 0.125000 0.731250
vt 0.125000 0.625000
vt 0.375000 0.731250
vt 0.125000 0.731250
vt 0.125000 0.731250
vt 0.375000 0.731250
vt 0.375000 0.731250
vt 0.375000 0.731250
vt 0.375000 0.731250
vt 0.125000 0.731250
vt 0.375000 0.750000
vt 0.625000 0.731250
vt 0.375000 0.731250
vt 0.375000 1.000000
vt 0.625000 0.750000
vt 0.375000 0.018750
vt 0.375000 0.018750
vt 0.875000 0.731250
vt 0.625000 0.018750
vt 0.375000 0.018750
vt 0.625000 0.000000
vt 0.375000 0.000000
vt 0.125000 0.731250
vt 0.125000 0.750000
vt 0.375000 0.731250
vt 0.125000 0.731250
vt 0.375000 0.750000
vt 0.375000 1.000000
vt 0.375000 0.750000
vt 0.375000 0.731250
vt 0.375000 0.000000
vt 0.375000 0.000000
vt 0.125000 0.731250
vt 0.125000 0.731250
vt 0.375000 0.018750
vt 0.625000 0.125000
vt 0.875000 0.731250
vt 0.625000 1.000000
vt 0.875000 0.750000
vt 0.375000 1.000000
vn -1.0000 0.0000 0.0000
vn 0.0000 0.0000 -1.0000
vn 1.0000 0.0000 0.0000
vn 0.0000 0.0000 1.0000
vn 0.0000 -1.0000 0.0000
vn 0.0000 1.0000 0.0000
usemtl Cream_House02
s off
f 34/1/1 35/2/1 33/3/1
f 36/4/2 39/5/2 35/2/2
f 40/6/3 37/7/3 39/5/3
f 38/8/4 33/9/4 37/7/4
f 39/5/5 33/10/5 35/11/5
f 36/12/6 38/8/6 40/6/6
f 34/1/1 36/4/1 35/2/1
f 36/4/2 40/6/2 39/5/2
f 40/6/3 38/8/3 37/7/3
f 38/8/4 34/13/4 33/9/4
f 39/5/5 37/7/5 33/10/5
f 36/12/6 34/14/6 38/8/6
usemtl Gray_House02
f 8/15/1 30/16/1 5/17/1
f 3/18/1 13/19/1 1/20/1
f 14/21/6 2/22/6 16/23/6
f 15/24/5 1/25/5 13/26/5
f 16/23/3 4/27/3 15/24/3
f 4/27/2 8/28/2 1/25/2
f 5/29/5 29/30/5 6/31/5
f 6/31/3 31/32/3 7/33/3
f 7/33/6 32/34/6 8/28/6
f 11/35/3 18/36/3 20/37/3
f 9/38/2 12/39/2 11/35/2
f 30/16/1 26/40/1 21/41/1
f 12/39/6 19/42/6 18/36/6
f 13/19/1 19/43/1 17/44/1
f 17/44/1 10/45/1 9/46/1
f 18/36/6 14/21/6 16/23/6
f 17/47/5 15/24/5 13/26/5
f 20/37/3 16/23/3 15/24/3
f 22/48/5 24/49/5 21/50/5
f 23/51/2 27/52/2 28/53/2
f 24/49/3 28/53/3 25/54/3
f 22/55/1 26/40/1 27/56/1
f 27/56/1 17/44/1 9/46/1
f 25/54/3 11/35/3 20/37/3
f 28/53/2 9/38/2 11/35/2
f 26/57/4 20/37/4 17/47/4
f 30/58/4 31/32/4 32/34/4
f 29/30/5 21/50/5 24/49/5
f 31/32/3 24/49/3 25/54/3
f 32/34/6 25/54/6 26/57/6
f 8/15/1 32/59/1 30/16/1
f 3/18/1 14/60/1 13/19/1
f 14/21/6 3/61/6 2/22/6
f 15/24/5 4/27/5 1/25/5
f 16/23/3 2/22/3 4/27/3
f 4/27/2 7/33/2 8/28/2
f 5/29/5 30/58/5 29/30/5
f 6/31/3 29/30/3 31/32/3
f 7/33/6 31/32/6 32/34/6
f 11/35/3 12/39/3 18/36/3
f 9/38/2 10/62/2 12/39/2
f 30/16/1 32/59/1 26/40/1
f 12/39/6 10/63/6 19/42/6
f 13/19/1 14/60/1 19/43/1
f 17/44/1 19/43/1 10/45/1
f 18/36/6 19/42/6 14/21/6
f 17/47/5 20/37/5 15/24/5
f 20/37/3 18/36/3 16/23/3
f 22/48/5 23/51/5 24/49/5
f 23/51/2 22/64/2 27/52/2
f 24/49/3 23/51/3 28/53/3
f 22/55/1 21/41/1 26/40/1
f 27/56/1 26/40/1 17/44/1
f 25/54/3 28/53/3 11/35/3
f 28/53/2 27/52/2 9/38/2
f 26/57/4 25/54/4 20/37/4
f 30/58/4 29/30/4 31/32/4
f 29/30/5 30/58/5 21/50/5
f 31/32/3 29/30/3 24/49/3
f 32/34/6 31/32/6 25/54/6
