# Blender v2.90.0 OBJ File: 'GarageWall01_house4.blend'
# www.blender.org
mtllib GarageWall01_house4.mtl
o GarageWall01_house4_Cube.005
v 3.577609 -1.652481 0.143000
v 3.577609 1.652481 0.143000
v -3.577609 -1.652481 0.143000
v -3.577609 1.652481 0.143000
v 3.577609 -1.652481 -0.143000
v 3.577609 1.652481 -0.143000
v -3.577609 -1.652481 -0.143000
v -3.577609 1.652481 -0.143000
v 3.577609 -1.180344 0.143000
v 3.577609 -0.708206 0.143000
v 3.577609 -0.236069 0.143000
v 3.577609 0.236069 0.143000
v 3.577609 0.708206 0.143000
v 3.577609 1.180344 0.143000
v -3.577609 1.180344 0.143000
v -3.577609 0.708206 0.143000
v -3.577609 0.236069 0.143000
v -3.577609 -0.236069 0.143000
v -3.577609 -0.708206 0.143000
v -3.577609 -1.180344 0.143000
v -3.577609 1.180344 -0.143000
v -3.577609 0.708206 -0.143000
v -3.577609 0.236069 -0.143000
v -3.577609 -0.236069 -0.143000
v -3.577609 -0.708206 -0.143000
v -3.577609 -1.180344 -0.143000
v 3.577609 1.180344 -0.143000
v 3.577609 0.708206 -0.143000
v 3.577609 0.236069 -0.143000
v 3.577609 -0.236069 -0.143000
v 3.577609 -0.708206 -0.143000
v 3.577609 -1.180344 -0.143000
v 3.577609 1.180344 0.197837
v 3.577609 1.652481 0.153837
v -3.577609 1.652481 0.153837
v -3.577609 1.180344 0.197837
v -3.577609 1.180344 -0.197837
v -3.577609 1.652481 -0.153837
v 3.577609 1.652481 -0.153837
v 3.577609 1.180344 -0.197837
v -3.577609 -1.652481 -0.197837
v -3.577609 -1.180344 -0.153837
v 3.577609 -1.180344 -0.153837
v 3.577609 -1.652481 -0.197837
v -3.577609 -1.180344 -0.197837
v -3.577609 -0.708206 -0.153837
v 3.577609 -0.708206 -0.153837
v 3.577609 -1.180344 -0.197837
v -3.577609 -0.708206 -0.197837
v -3.577609 -0.236069 -0.153837
v 3.577609 -0.236069 -0.153837
v 3.577609 -0.708206 -0.197837
v -3.577609 -0.236069 -0.197837
v -3.577609 0.236069 -0.153837
v 3.577609 0.236069 -0.153837
v 3.577609 -0.236069 -0.197837
v -3.577609 0.236069 -0.197837
v -3.577609 0.708206 -0.153837
v 3.577609 0.708206 -0.153837
v 3.577609 0.236069 -0.197837
v -3.577609 0.708206 -0.197837
v -3.577609 1.180344 -0.153837
v 3.577609 1.180344 -0.153837
v 3.577609 0.708206 -0.197837
v 3.577609 -1.652481 0.197837
v 3.577609 -1.180344 0.153837
v -3.577609 -1.180344 0.153837
v -3.577609 -1.652481 0.197837
v 3.577609 -1.180344 0.197837
v 3.577609 -0.708206 0.153837
v -3.577609 -0.708206 0.153837
v -3.577609 -1.180344 0.197837
v 3.577609 -0.708206 0.197837
v 3.577609 -0.236069 0.153837
v -3.577609 -0.236069 0.153837
v -3.577609 -0.708206 0.197837
v 3.577609 -0.236069 0.197837
v 3.577609 0.236069 0.153837
v -3.577609 0.236069 0.153837
v -3.577609 -0.236069 0.197837
v 3.577609 0.236069 0.197837
v 3.577609 0.708206 0.153837
v -3.577609 0.708206 0.153837
v -3.577609 0.236069 0.197837
v 3.577609 0.708206 0.197837
v 3.577609 1.180344 0.153837
v -3.577609 1.180344 0.153837
v -3.577609 0.708206 0.197837
vt 0.625000 0.250000
vt 0.589286 0.500000
vt 0.589286 0.250000
vt 0.625000 0.750000
vt 0.589286 1.000000
vt 0.589286 0.750000
vt 0.375000 0.500000
vt 0.125000 0.750000
vt 0.125000 0.500000
vt 0.875000 0.500000
vt 0.625000 0.500000
vt 0.410714 0.750000
vt 0.375000 1.000000
vt 0.375000 0.750000
vt 0.446429 0.750000
vt 0.410714 1.000000
vt 0.482143 0.750000
vt 0.446429 1.000000
vt 0.517857 0.750000
vt 0.482143 1.000000
vt 0.553571 0.750000
vt 0.517857 1.000000
vt 0.553571 1.000000
vt 0.410714 0.250000
vt 0.375000 0.250000
vt 0.446429 0.250000
vt 0.410714 0.500000
vt 0.482143 0.250000
vt 0.446429 0.500000
vt 0.517857 0.250000
vt 0.482143 0.500000
vt 0.553571 0.250000
vt 0.517857 0.500000
vt 0.553571 0.500000
vt 0.625000 0.000000
vt 0.589286 0.250000
vt 0.589286 0.000000
vt 0.589286 0.000000
vt 0.625000 0.000000
vt 0.625000 0.250000
vt 0.625000 0.500000
vt 0.589286 0.750000
vt 0.589286 0.500000
vt 0.625000 0.750000
vt 0.410714 0.500000
vt 0.375000 0.750000
vt 0.375000 0.500000
vt 0.410714 0.750000
vt 0.446429 0.500000
vt 0.410714 0.750000
vt 0.410714 0.500000
vt 0.446429 0.750000
vt 0.482143 0.500000
vt 0.446429 0.750000
vt 0.446429 0.500000
vt 0.482143 0.750000
vt 0.517857 0.500000
vt 0.482143 0.750000
vt 0.482143 0.500000
vt 0.517857 0.750000
vt 0.553571 0.500000
vt 0.517857 0.750000
vt 0.517857 0.500000
vt 0.553571 0.750000
vt 0.589286 0.500000
vt 0.553571 0.750000
vt 0.553571 0.500000
vt 0.589286 0.750000
vt 0.410714 0.000000
vt 0.375000 0.250000
vt 0.375000 0.000000
vt 0.375000 0.000000
vt 0.410714 0.000000
vt 0.410714 0.250000
vt 0.446429 0.000000
vt 0.410714 0.250000
vt 0.410714 0.000000
vt 0.446429 0.000000
vt 0.446429 0.250000
vt 0.482143 0.000000
vt 0.446429 0.250000
vt 0.446429 0.000000
vt 0.482143 0.000000
vt 0.482143 0.250000
vt 0.517857 0.000000
vt 0.482143 0.250000
vt 0.482143 0.000000
vt 0.517857 0.000000
vt 0.517857 0.250000
vt 0.553571 0.000000
vt 0.517857 0.250000
vt 0.517857 0.000000
vt 0.553571 0.000000
vt 0.553571 0.250000
vt 0.589286 0.000000
vt 0.553571 0.250000
vt 0.553571 0.000000
vt 0.589286 0.250000
vt 0.625000 1.000000
vt 0.875000 0.750000
vn -1.0000 0.0000 0.0000
vn 1.0000 0.0000 0.0000
vn 0.0000 -1.0000 0.0000
vn 0.0000 1.0000 0.0000
vn 0.0000 0.0928 0.9957
vn -0.0000 0.0928 -0.9957
usemtl Wood_house04
s off
f 4/1/1 21/2/1 15/3/1
f 6/4/2 14/5/2 27/6/2
f 7/7/3 1/8/3 3/9/3
f 4/10/4 6/4/4 8/11/4
f 32/12/2 1/13/2 5/14/2
f 31/15/2 9/16/2 32/12/2
f 30/17/2 10/18/2 31/15/2
f 29/19/2 11/20/2 30/17/2
f 28/21/2 12/22/2 29/19/2
f 27/6/2 13/23/2 28/21/2
f 20/24/1 7/7/1 3/25/1
f 19/26/1 26/27/1 20/24/1
f 18/28/1 25/29/1 19/26/1
f 17/30/1 24/31/1 18/28/1
f 16/32/1 23/33/1 17/30/1
f 15/3/1 22/34/1 16/32/1
f 34/35/5 36/36/5 33/37/5
f 34/35/2 14/38/2 2/39/2
f 35/40/4 2/39/4 4/1/4
f 15/3/1 35/40/1 4/1/1
f 33/37/3 15/3/3 14/38/3
f 38/41/6 40/42/6 37/43/6
f 38/41/1 21/2/1 8/11/1
f 39/44/4 8/11/4 6/4/4
f 27/6/2 39/44/2 6/4/2
f 37/43/3 27/6/3 21/2/3
f 42/45/6 44/46/6 41/47/6
f 42/45/1 7/7/1 26/27/1
f 43/48/4 26/27/4 32/12/4
f 5/14/2 43/48/2 32/12/2
f 41/47/3 5/14/3 7/7/3
f 46/49/6 48/50/6 45/51/6
f 46/49/1 26/27/1 25/29/1
f 47/52/4 25/29/4 31/15/4
f 32/12/2 47/52/2 31/15/2
f 45/51/3 32/12/3 26/27/3
f 50/53/6 52/54/6 49/55/6
f 50/53/1 25/29/1 24/31/1
f 51/56/4 24/31/4 30/17/4
f 31/15/2 51/56/2 30/17/2
f 49/55/3 31/15/3 25/29/3
f 54/57/6 56/58/6 53/59/6
f 54/57/1 24/31/1 23/33/1
f 55/60/4 23/33/4 29/19/4
f 30/17/2 55/60/2 29/19/2
f 53/59/3 30/17/3 24/31/3
f 58/61/6 60/62/6 57/63/6
f 58/61/1 23/33/1 22/34/1
f 59/64/4 22/34/4 28/21/4
f 29/19/2 59/64/2 28/21/2
f 57/63/3 29/19/3 23/33/3
f 62/65/6 64/66/6 61/67/6
f 62/65/1 22/34/1 21/2/1
f 63/68/4 21/2/4 27/6/4
f 28/21/2 63/68/2 27/6/2
f 61/67/3 28/21/3 22/34/3
f 66/69/5 68/70/5 65/71/5
f 66/69/2 1/72/2 9/73/2
f 67/74/4 9/73/4 20/24/4
f 3/25/1 67/74/1 20/24/1
f 65/71/3 3/25/3 1/72/3
f 70/75/5 72/76/5 69/77/5
f 70/75/2 9/73/2 10/78/2
f 71/79/4 10/78/4 19/26/4
f 20/24/1 71/79/1 19/26/1
f 69/77/3 20/24/3 9/73/3
f 74/80/5 76/81/5 73/82/5
f 74/80/2 10/78/2 11/83/2
f 75/84/4 11/83/4 18/28/4
f 19/26/1 75/84/1 18/28/1
f 73/82/3 19/26/3 10/78/3
f 78/85/5 80/86/5 77/87/5
f 78/85/2 11/83/2 12/88/2
f 79/89/4 12/88/4 17/30/4
f 18/28/1 79/89/1 17/30/1
f 77/87/3 18/28/3 11/83/3
f 82/90/5 84/91/5 81/92/5
f 82/90/2 12/88/2 13/93/2
f 83/94/4 13/93/4 16/32/4
f 17/30/1 83/94/1 16/32/1
f 81/92/3 17/30/3 12/88/3
f 86/95/5 88/96/5 85/97/5
f 86/95/2 13/93/2 14/38/2
f 87/98/4 14/38/4 15/3/4
f 16/32/1 87/98/1 15/3/1
f 85/97/3 16/32/3 13/93/3
f 4/1/1 8/11/1 21/2/1
f 6/4/2 2/99/2 14/5/2
f 7/7/3 5/14/3 1/8/3
f 4/10/4 2/100/4 6/4/4
f 32/12/2 9/16/2 1/13/2
f 31/15/2 10/18/2 9/16/2
f 30/17/2 11/20/2 10/18/2
f 29/19/2 12/22/2 11/20/2
f 28/21/2 13/23/2 12/22/2
f 27/6/2 14/5/2 13/23/2
f 20/24/1 26/27/1 7/7/1
f 19/26/1 25/29/1 26/27/1
f 18/28/1 24/31/1 25/29/1
f 17/30/1 23/33/1 24/31/1
f 16/32/1 22/34/1 23/33/1
f 15/3/1 21/2/1 22/34/1
f 34/35/5 35/40/5 36/36/5
f 34/35/2 33/37/2 14/38/2
f 35/40/4 34/35/4 2/39/4
f 15/3/1 36/36/1 35/40/1
f 33/37/3 36/36/3 15/3/3
f 38/41/6 39/44/6 40/42/6
f 38/41/1 37/43/1 21/2/1
f 39/44/4 38/41/4 8/11/4
f 27/6/2 40/42/2 39/44/2
f 37/43/3 40/42/3 27/6/3
f 42/45/6 43/48/6 44/46/6
f 42/45/1 41/47/1 7/7/1
f 43/48/4 42/45/4 26/27/4
f 5/14/2 44/46/2 43/48/2
f 41/47/3 44/46/3 5/14/3
f 46/49/6 47/52/6 48/50/6
f 46/49/1 45/51/1 26/27/1
f 47/52/4 46/49/4 25/29/4
f 32/12/2 48/50/2 47/52/2
f 45/51/3 48/50/3 32/12/3
f 50/53/6 51/56/6 52/54/6
f 50/53/1 49/55/1 25/29/1
f 51/56/4 50/53/4 24/31/4
f 31/15/2 52/54/2 51/56/2
f 49/55/3 52/54/3 31/15/3
f 54/57/6 55/60/6 56/58/6
f 54/57/1 53/59/1 24/31/1
f 55/60/4 54/57/4 23/33/4
f 30/17/2 56/58/2 55/60/2
f 53/59/3 56/58/3 30/17/3
f 58/61/6 59/64/6 60/62/6
f 58/61/1 57/63/1 23/33/1
f 59/64/4 58/61/4 22/34/4
f 29/19/2 60/62/2 59/64/2
f 57/63/3 60/62/3 29/19/3
f 62/65/6 63/68/6 64/66/6
f 62/65/1 61/67/1 22/34/1
f 63/68/4 62/65/4 21/2/4
f 28/21/2 64/66/2 63/68/2
f 61/67/3 64/66/3 28/21/3
f 66/69/5 67/74/5 68/70/5
f 66/69/2 65/71/2 1/72/2
f 67/74/4 66/69/4 9/73/4
f 3/25/1 68/70/1 67/74/1
f 65/71/3 68/70/3 3/25/3
f 70/75/5 71/79/5 72/76/5
f 70/75/2 69/77/2 9/73/2
f 71/79/4 70/75/4 10/78/4
f 20/24/1 72/76/1 71/79/1
f 69/77/3 72/76/3 20/24/3
f 74/80/5 75/84/5 76/81/5
f 74/80/2 73/82/2 10/78/2
f 75/84/4 74/80/4 11/83/4
f 19/26/1 76/81/1 75/84/1
f 73/82/3 76/81/3 19/26/3
f 78/85/5 79/89/5 80/86/5
f 78/85/2 77/87/2 11/83/2
f 79/89/4 78/85/4 12/88/4
f 18/28/1 80/86/1 79/89/1
f 77/87/3 80/86/3 18/28/3
f 82/90/5 83/94/5 84/91/5
f 82/90/2 81/92/2 12/88/2
f 83/94/4 82/90/4 13/93/4
f 17/30/1 84/91/1 83/94/1
f 81/92/3 84/91/3 17/30/3
f 86/95/5 87/98/5 88/96/5
f 86/95/2 85/97/2 13/93/2
f 87/98/4 86/95/4 14/38/4
f 16/32/1 88/96/1 87/98/1
f 85/97/3 88/96/3 16/32/3
