# Blender v2.90.0 OBJ File: 'Window03_house4.blend'
# www.blender.org
mtllib Window03_house4.mtl
o Window03_house04_Cube.013
v -0.020643 -0.294519 0.021060
v -0.020643 0.301252 0.021060
v -0.020643 -0.294519 -0.017792
v -0.020643 0.301252 -0.017792
v 0.020643 -0.294519 0.021060
v 0.020643 0.301252 0.021060
v 0.020643 -0.294519 -0.017792
v 0.020643 0.301252 -0.017792
v -0.582129 0.126142 0.025951
v 0.582129 0.126142 0.025951
v -0.582129 0.126142 -0.022683
v 0.582129 0.126142 -0.022683
v -0.582129 0.084856 0.025951
v 0.582129 0.084856 0.025951
v -0.582129 0.084856 -0.022683
v 0.582129 0.084856 -0.022683
v -1.440654 -0.481789 0.012066
v -1.440654 0.488592 0.012066
v -1.440654 -0.481789 -0.008798
v -1.440654 0.488592 -0.008798
v 1.440654 -0.481789 0.012066
v 1.440654 0.488592 0.012066
v 1.440654 -0.481789 -0.008798
v 1.440654 0.488592 -0.008798
v -0.527834 -0.263280 0.043185
v -0.527834 0.270013 0.043185
v -0.527834 -0.263280 -0.039917
v -0.527834 0.270013 -0.039917
v 0.527834 -0.263280 0.043185
v 0.527834 0.270013 0.043185
v 0.527834 -0.263280 -0.039917
v 0.527834 0.270013 -0.039917
v -0.637256 -0.412459 0.043185
v -0.637256 0.419192 0.043185
v -0.637256 0.419192 -0.039917
v -0.637256 -0.412459 -0.039917
v 0.637256 -0.412459 -0.039917
v 0.637256 0.419192 -0.039917
v 0.637256 0.419192 0.043185
v 0.637256 -0.412459 0.043185
v -1.270360 -0.269782 0.054996
v -1.270360 0.276516 0.054996
v -1.270360 -0.269782 -0.070926
v -1.270360 0.276516 -0.070926
v -0.747576 -0.269782 0.054996
v -0.747576 0.276516 0.054996
v -0.747576 -0.269782 -0.070926
v -0.747576 0.276516 -0.070926
v -1.378098 -0.412459 0.054996
v -1.378098 0.419192 0.054996
v -1.378098 0.419192 -0.070926
v -1.378098 -0.412459 -0.070926
v -0.639837 -0.412459 -0.070926
v -0.639837 0.419192 -0.070926
v -0.639837 0.419192 0.054996
v -0.639837 -0.412459 0.054996
v 1.270360 -0.269782 0.054996
v 1.270360 0.276516 0.054996
v 1.270360 -0.269782 -0.070926
v 1.270360 0.276516 -0.070926
v 0.747575 -0.269782 0.054996
v 0.747575 0.276516 0.054996
v 0.747575 -0.269782 -0.070926
v 0.747575 0.276516 -0.070926
v 1.378098 -0.412459 0.054996
v 1.378098 0.419192 0.054996
v 1.378098 0.419192 -0.070926
v 1.378098 -0.412459 -0.070926
v 0.639837 -0.412459 -0.070926
v 0.639837 0.419192 -0.070926
v 0.639837 0.419192 0.054996
v 0.639837 -0.412459 0.054996
v -1.041911 -0.294519 0.021060
v -1.041911 0.301252 0.021060
v -1.041911 -0.294519 -0.017792
v -1.041911 0.301252 -0.017792
v -1.000624 -0.294519 0.021060
v -1.000624 0.301252 0.021060
v -1.000624 -0.294519 -0.017792
v -1.000624 0.301252 -0.017792
v -1.319153 0.126142 0.025951
v -0.723382 0.126142 0.025951
v -1.319153 0.126142 -0.022683
v -0.723382 0.126142 -0.022683
v -1.319153 0.084856 0.025951
v -0.723382 0.084856 0.025951
v -1.319153 0.084856 -0.022683
v -0.723382 0.084856 -0.022683
v 1.041911 -0.294519 0.021060
v 1.041911 0.301252 0.021060
v 1.041911 -0.294519 -0.017792
v 1.041911 0.301252 -0.017792
v 1.000624 -0.294519 0.021060
v 1.000624 0.301252 0.021060
v 1.000624 -0.294519 -0.017792
v 1.000624 0.301252 -0.017792
v 1.319153 0.126142 0.025951
v 0.723382 0.126142 0.025951
v 1.319153 0.126142 -0.022683
v 0.723382 0.126142 -0.022683
v 1.319153 0.084856 0.025951
v 0.723382 0.084856 0.025951
v 1.319153 0.084856 -0.022683
v 0.723382 0.084856 -0.022683
v 2.732792 -0.709970 0.144634
v -2.732792 -0.709970 0.144634
v 2.732792 -0.709970 -0.141366
v -2.732792 -0.709970 -0.141366
v 2.732792 -0.237832 0.144634
v 2.732792 0.234305 0.144634
v -2.732792 0.234305 0.144634
v -2.732792 -0.237832 0.144634
v -2.732792 0.234305 -0.141366
v -2.732792 -0.237832 -0.141366
v 2.732792 0.234305 -0.141366
v 2.732792 -0.237832 -0.141366
v -2.727659 -0.711468 -0.180134
v -2.732792 -0.237832 -0.152203
v 2.732792 -0.237832 -0.152203
v 2.727659 -0.711468 -0.180134
v -2.727659 -0.239330 -0.180134
v -2.732792 0.234305 -0.152203
v 2.732792 0.234305 -0.152203
v 2.727659 -0.239330 -0.180134
v -2.727659 0.232807 -0.180134
v -2.732792 0.706442 -0.152203
v 2.732792 0.706442 -0.152203
v 2.727659 0.232807 -0.180134
v 2.727659 -0.711468 0.183402
v 2.732792 -0.237832 0.155470
v -2.732792 -0.237832 0.155471
v -2.727659 -0.711468 0.183402
v 2.727659 -0.239330 0.183402
v 2.732792 0.234305 0.155470
v -2.732792 0.234305 0.155471
v -2.727659 -0.239330 0.183402
v 2.727659 0.232807 0.183402
v 2.732792 0.706442 0.155470
v -2.732792 0.706442 0.155471
v -2.727659 0.232807 0.183402
v 1.433048 0.234305 -0.152203
v 1.433048 0.234305 -0.141366
v 1.433048 0.232807 -0.180134
v 1.433048 -0.496161 0.170705
v 1.433048 -0.237832 -0.152203
v 1.433048 -0.239330 -0.180134
v 1.433048 -0.237832 -0.141366
v 1.433048 -0.496161 -0.167437
v 1.433048 0.234305 0.144634
v 1.433047 0.524309 -0.162944
v 1.433048 -0.237832 0.144634
v 1.433048 -0.237832 0.155470
v 1.433048 0.524309 0.166211
v 1.433048 0.232807 0.183402
v 1.433048 0.234305 0.155470
v 1.433048 -0.239330 0.183402
v -1.433047 0.524309 0.166211
v -1.433048 0.524309 -0.162944
v -1.433048 -0.496161 -0.167437
v -1.433048 -0.496161 0.170705
v -1.433048 0.234305 -0.152203
v -1.433048 0.234305 -0.141366
v -1.433048 0.232807 -0.180134
v -1.433048 -0.237832 -0.152203
v -1.433048 -0.239330 -0.180134
v -1.433048 -0.237832 -0.141366
v -1.433048 0.234305 0.144634
v -1.433048 -0.237832 0.144634
v -1.433048 -0.237832 0.155471
v -1.433048 0.232807 0.183402
v -1.433048 0.234305 0.155471
v -1.433048 -0.239330 0.183402
v -1.371452 -0.392331 0.240361
v -1.371452 0.399134 0.240361
v -1.371452 -0.392331 -0.237093
v -1.371452 0.399134 -0.237093
v 1.371452 -0.392331 0.240361
v 1.371452 0.399134 0.240361
v 1.371452 -0.392331 -0.237093
v 1.371452 0.399134 -0.237093
v -1.529961 -0.546252 0.240361
v -1.529961 0.553055 0.240361
v -1.529961 0.553055 -0.237093
v -1.529961 -0.546252 -0.237093
v 1.529961 -0.546252 -0.237093
v 1.529961 0.553055 -0.237093
v 1.529961 0.553055 0.240361
v 1.529961 -0.546252 0.240361
vt 0.375000 0.500000
vt 0.125000 0.750000
vt 0.125000 0.500000
vt 0.375000 0.750000
vt 0.410714 1.000000
vt 0.375000 1.000000
vt 0.446429 0.750000
vt 0.410714 0.750000
vt 0.410714 0.250000
vt 0.375000 0.250000
vt 0.446429 0.250000
vt 0.410714 0.500000
vt 0.375000 0.500000
vt 0.391235 0.690616
vt 0.375000 0.750000
vt 0.410714 0.500000
vt 0.410714 0.750000
vt 0.410714 0.690549
vt 0.410714 0.500000
vt 0.446429 0.559451
vt 0.410714 0.559328
vt 0.446429 0.500000
vt 0.446429 0.500000
vt 0.446429 0.750000
vt 0.446429 0.690549
vt 0.410714 0.559451
vt 0.468409 0.690596
vt 0.468409 0.559404
vt 0.482143 0.500000
vt 0.446429 0.500000
vt 0.446429 0.559451
vt 0.375000 0.000000
vt 0.391235 0.190616
vt 0.375000 0.250000
vt 0.410714 0.000000
vt 0.375000 0.000000
vt 0.410714 0.000000
vt 0.410714 0.250000
vt 0.410714 0.190549
vt 0.410714 0.000000
vt 0.446429 0.059451
vt 0.410714 0.059328
vt 0.446429 0.000000
vt 0.446429 0.000000
vt 0.446429 0.250000
vt 0.446429 0.190549
vt 0.410714 0.059451
vt 0.468409 0.190596
vt 0.468409 0.059404
vt 0.482143 0.000000
vt 0.446429 0.000000
vt 0.446429 0.059451
vt 0.482143 0.750000
vt 0.446429 0.750000
vt 0.482143 0.250000
vt 0.625000 0.711174
vt 0.875000 0.538826
vt 0.625000 0.538826
vt 0.438287 0.699876
vt 0.553586 0.720176
vt 0.553953 0.550124
vt 0.410714 0.750000
vt 0.446429 0.190549
vt 0.410714 0.250000
vt 0.410714 0.190672
vt 0.410714 0.059451
vt 0.446429 0.250000
vt 0.438287 0.199876
vt 0.553586 0.220176
vt 0.553953 0.050124
vt 0.446429 0.690549
vt 0.410714 0.690672
vt 0.410714 0.559451
vt 0.125000 0.713527
vt 0.375000 0.536473
vt 0.125000 0.536473
vt 0.446429 1.000000
vt 0.391235 0.559384
vt 0.410714 0.690549
vt 0.446429 0.559328
vt 0.446429 0.690672
vt 0.391235 0.059384
vt 0.410714 0.190549
vt 0.446429 0.059328
vt 0.446429 0.190672
vt 0.875000 0.711175
vt 0.438287 0.544450
vt 0.375000 0.713527
vt 0.438287 0.705551
vt 0.437920 0.720176
vt 0.553953 0.705551
vt 0.553953 0.699876
vt 0.553586 0.529824
vt 0.553953 0.544449
vt 0.437920 0.529824
vt 0.438287 0.550124
vt 0.438287 0.044449
vt 0.375000 0.036473
vt 0.375000 0.213527
vt 0.438287 0.205551
vt 0.437920 0.220176
vt 0.553953 0.205551
vt 0.553953 0.199876
vt 0.625000 0.211174
vt 0.625000 0.038825
vt 0.553586 0.029824
vt 0.553953 0.044449
vt 0.437920 0.029824
vt 0.438287 0.050124
vt 0.625000 0.000000
vt 0.375000 0.250000
vt 0.375000 0.000000
vt 0.625000 0.250000
vt 0.375000 0.500000
vt 0.625000 0.500000
vt 0.375000 0.750000
vt 0.625000 0.750000
vt 0.375000 1.000000
vt 0.125000 0.750000
vt 0.125000 0.500000
vt 0.875000 0.500000
vt 0.625000 0.000000
vt 0.375000 0.250000
vt 0.375000 0.000000
vt 0.625000 0.250000
vt 0.375000 0.500000
vt 0.625000 0.500000
vt 0.375000 0.750000
vt 0.625000 0.750000
vt 0.375000 1.000000
vt 0.125000 0.750000
vt 0.125000 0.500000
vt 0.875000 0.500000
vt 0.625000 0.000000
vt 0.375000 0.250000
vt 0.375000 0.000000
vt 0.396463 0.478537
vt 0.603537 0.771464
vt 0.603537 0.478537
vt 0.625000 0.500000
vt 0.375000 0.750000
vt 0.375000 0.500000
vt 0.603537 0.978537
vt 0.603537 0.271463
vt 0.125000 0.750000
vt 0.125000 0.500000
vt 0.875000 0.500000
vt 0.625000 0.750000
vt 0.375000 1.000000
vt 0.396463 0.978537
vt 0.396463 0.271463
vt 0.625000 0.250000
vt 0.396463 0.771464
vt 0.625000 1.000000
vt 0.625000 0.000000
vt 0.375000 0.250000
vt 0.375000 0.000000
vt 0.411484 0.463516
vt 0.588516 0.786484
vt 0.588516 0.463516
vt 0.625000 0.500000
vt 0.375000 0.750000
vt 0.375000 0.500000
vt 0.588516 0.963516
vt 0.588516 0.286484
vt 0.125000 0.750000
vt 0.125000 0.500000
vt 0.875000 0.500000
vt 0.625000 0.750000
vt 0.411484 0.963516
vt 0.625000 1.000000
vt 0.375000 1.000000
vt 0.625000 0.250000
vt 0.411484 0.286484
vt 0.411484 0.786484
vt 0.375000 0.250000
vt 0.625000 0.000000
vt 0.375000 0.000000
vt 0.588516 0.786484
vt 0.411484 0.463516
vt 0.588516 0.463516
vt 0.375000 0.750000
vt 0.625000 0.500000
vt 0.375000 0.500000
vt 0.588516 0.963516
vt 0.588516 0.286484
vt 0.125000 0.750000
vt 0.125000 0.500000
vt 0.625000 0.750000
vt 0.875000 0.500000
vt 0.375000 1.000000
vt 0.411484 0.963516
vt 0.625000 0.250000
vt 0.411484 0.286484
vt 0.411484 0.786484
vt 0.625000 1.000000
vt 0.625000 0.000000
vt 0.375000 0.250000
vt 0.375000 0.000000
vt 0.625000 0.250000
vt 0.375000 0.500000
vt 0.625000 0.500000
vt 0.375000 0.750000
vt 0.625000 0.750000
vt 0.375000 1.000000
vt 0.125000 0.750000
vt 0.125000 0.500000
vt 0.875000 0.500000
vt 0.625000 0.000000
vt 0.375000 0.250000
vt 0.375000 0.000000
vt 0.625000 0.250000
vt 0.375000 0.500000
vt 0.625000 0.500000
vt 0.375000 0.750000
vt 0.625000 0.750000
vt 0.375000 1.000000
vt 0.125000 0.750000
vt 0.125000 0.500000
vt 0.875000 0.500000
vt 0.375000 0.250000
vt 0.625000 0.000000
vt 0.375000 0.000000
vt 0.375000 0.500000
vt 0.625000 0.250000
vt 0.375000 0.750000
vt 0.625000 0.500000
vt 0.375000 1.000000
vt 0.625000 0.750000
vt 0.125000 0.750000
vt 0.125000 0.500000
vt 0.875000 0.500000
vt 0.375000 0.250000
vt 0.625000 0.000000
vt 0.375000 0.000000
vt 0.375000 0.500000
vt 0.625000 0.250000
vt 0.375000 0.750000
vt 0.625000 0.500000
vt 0.375000 1.000000
vt 0.625000 0.750000
vt 0.125000 0.750000
vt 0.125000 0.500000
vt 0.875000 0.500000
vt 0.625000 0.000000
vt 0.375000 0.250000
vt 0.375000 0.000000
vt 0.625000 0.500000
vt 0.375000 0.750000
vt 0.375000 0.500000
vt 0.125000 0.750000
vt 0.125000 0.500000
vt 0.875000 0.500000
vt 0.625000 0.750000
vt 0.589996 0.984847
vt 0.375000 1.000000
vt 0.410004 0.984847
vt 0.410004 0.265153
vt 0.625000 0.250000
vt 0.589996 0.265153
vt 0.410004 0.484847
vt 0.589996 0.484847
vt 0.410004 0.765153
vt 0.589996 0.765153
vt 0.625000 1.000000
vt 0.625000 1.000000
vt 0.875000 0.750000
vt 0.625000 1.000000
vt 0.875000 0.750000
vt 0.875000 0.750000
vt 0.875000 0.750000
vt 0.875000 0.750000
vt 0.625000 1.000000
vt 0.875000 0.750000
vt 0.625000 1.000000
vt 0.875000 0.750000
vt 0.625000 1.000000
vt 0.875000 0.750000
vt 0.625000 1.000000
vt 0.875000 0.750000
vt 0.875000 0.750000
vt 0.625000 0.000000
vt 0.375000 0.250000
vt 0.375000 0.000000
vt 0.625000 0.250000
vt 0.375000 0.500000
vt 0.625000 0.500000
vt 0.375000 0.750000
vt 0.625000 0.750000
vt 0.375000 1.000000
vt 0.125000 0.750000
vt 0.125000 0.500000
vt 0.875000 0.500000
vt 0.625000 1.000000
vt 0.875000 0.750000
vn 0.0000 -1.0000 0.0000
vn 1.0000 0.0000 0.0000
vn -1.0000 0.0000 0.0000
vn -0.0000 0.0589 -0.9983
vn 0.0000 1.0000 0.0000
vn 0.0000 -0.9993 0.0386
vn 0.0000 0.0589 0.9983
vn -0.0000 -0.9993 -0.0386
vn 0.9999 -0.0108 0.0000
vn -0.9999 -0.0108 -0.0000
vn -0.9914 -0.0030 -0.1311
vn 0.9914 -0.0030 -0.1311
vn 0.9914 -0.0030 0.1311
vn -0.9914 -0.0030 0.1311
vn 0.0000 0.0000 -1.0000
vn 0.0000 0.0000 1.0000
usemtl Wood_house04
s off
f 108/1/1 105/2/1 106/3/1
f 107/4/2 109/5/2 105/6/2
f 115/7/2 109/5/2 116/8/2
f 112/9/3 108/1/3 106/10/3
f 111/11/3 114/12/3 112/9/3
f 117/13/4 148/14/4 120/15/4
f 118/16/3 108/1/3 114/12/3
f 119/17/5 147/18/5 116/8/5
f 107/4/2 119/17/2 116/8/2
f 117/13/6 107/4/6 108/1/6
f 121/19/4 161/20/4 165/21/4
f 122/22/3 114/12/3 113/23/3
f 123/24/5 142/25/5 115/7/5
f 116/8/2 123/24/2 115/7/2
f 121/19/6 166/26/6 114/12/6
f 150/27/4 158/28/4 126/29/4
f 125/30/6 162/31/6 113/23/6
f 129/32/7 160/33/7 132/34/7
f 130/35/2 105/36/2 109/37/2
f 131/38/5 168/39/5 112/9/5
f 106/10/3 131/38/3 112/9/3
f 129/32/8 106/10/8 105/36/8
f 133/40/7 155/41/7 156/42/7
f 134/43/2 109/37/2 110/44/2
f 135/45/5 167/46/5 111/11/5
f 112/9/3 135/45/3 111/11/3
f 133/40/8 151/47/8 109/37/8
f 157/48/7 153/49/7 138/50/7
f 137/51/8 149/52/8 110/44/8
f 126/29/5 138/50/5 127/53/5
f 127/53/9 137/51/9 128/54/9
f 125/30/10 139/55/10 126/29/10
f 153/56/1 158/57/1 150/58/1
f 151/59/3 154/60/3 142/61/3
f 147/18/6 124/62/6 116/8/6
f 171/63/7 136/64/7 172/65/7
f 155/41/5 110/44/5 149/52/5
f 152/66/5 109/37/5 151/47/5
f 142/25/6 128/54/6 115/7/6
f 167/46/8 140/67/8 111/11/8
f 166/68/2 163/69/2 167/70/2
f 161/20/5 113/23/5 162/31/5
f 168/39/8 136/64/8 112/9/8
f 141/71/4 124/62/4 146/72/4
f 164/73/5 114/12/5 166/26/5
f 160/74/5 148/75/5 159/76/5
f 108/1/1 107/4/1 105/2/1
f 107/4/2 116/8/2 109/5/2
f 115/7/2 110/77/2 109/5/2
f 112/9/3 114/12/3 108/1/3
f 111/11/3 113/23/3 114/12/3
f 117/13/4 118/16/4 159/78/4
f 118/16/4 164/73/4 159/78/4
f 145/79/4 119/17/4 148/14/4
f 119/17/4 120/15/4 148/14/4
f 117/13/4 159/78/4 148/14/4
f 118/16/11 117/13/11 108/1/11
f 119/17/5 145/79/5 147/18/5
f 107/4/12 120/15/12 119/17/12
f 117/13/6 120/15/6 107/4/6
f 121/19/4 122/22/4 161/20/4
f 122/22/11 121/19/11 114/12/11
f 123/24/5 141/71/5 142/25/5
f 116/8/12 124/62/12 123/24/12
f 121/19/6 165/21/6 166/26/6
f 163/80/4 125/30/4 158/28/4
f 125/30/4 126/29/4 158/28/4
f 127/53/4 128/54/4 150/27/4
f 128/54/4 143/81/4 150/27/4
f 127/53/4 150/27/4 126/29/4
f 125/30/6 163/80/6 162/31/6
f 129/32/7 130/35/7 144/82/7
f 130/35/7 152/66/7 144/82/7
f 169/83/7 131/38/7 160/33/7
f 131/38/7 132/34/7 160/33/7
f 129/32/7 144/82/7 160/33/7
f 130/35/13 129/32/13 105/36/13
f 131/38/5 169/83/5 168/39/5
f 106/10/14 132/34/14 131/38/14
f 129/32/8 132/34/8 106/10/8
f 133/40/7 134/43/7 155/41/7
f 134/43/13 133/40/13 109/37/13
f 135/45/5 171/63/5 167/46/5
f 112/9/14 136/64/14 135/45/14
f 133/40/8 156/42/8 151/47/8
f 154/84/7 137/51/7 153/49/7
f 137/51/7 138/50/7 153/49/7
f 139/55/7 140/67/7 157/48/7
f 140/67/7 170/85/7 157/48/7
f 139/55/7 157/48/7 138/50/7
f 137/51/8 154/84/8 149/52/8
f 126/29/5 139/55/5 138/50/5
f 127/53/9 138/50/9 137/51/9
f 125/30/10 140/67/10 139/55/10
f 153/56/1 157/86/1 158/57/1
f 145/87/3 148/75/3 151/59/3
f 148/75/3 144/88/3 151/59/3
f 144/88/3 152/89/3 151/59/3
f 151/59/3 156/90/3 155/91/3
f 155/91/3 149/92/3 154/60/3
f 154/60/3 153/56/3 142/61/3
f 153/56/3 150/58/3 142/61/3
f 150/58/3 143/93/3 142/61/3
f 142/61/3 141/94/3 145/87/3
f 141/94/3 146/95/3 145/87/3
f 146/95/3 147/96/3 145/87/3
f 151/59/2 155/91/2 154/60/2
f 145/87/3 151/59/3 142/61/3
f 147/18/6 146/72/6 124/62/6
f 171/63/7 135/45/7 136/64/7
f 155/41/5 134/43/5 110/44/5
f 152/66/5 130/35/5 109/37/5
f 142/25/6 143/81/6 128/54/6
f 167/46/8 170/85/8 140/67/8
f 169/97/2 160/98/2 166/68/2
f 160/98/2 159/99/2 166/68/2
f 159/99/2 164/100/2 166/68/2
f 166/68/2 165/101/2 161/102/2
f 161/102/2 162/103/2 163/69/2
f 163/69/2 158/104/2 167/70/2
f 158/104/2 157/105/2 167/70/2
f 157/105/2 170/106/2 167/70/2
f 167/70/2 171/107/2 169/97/2
f 171/107/2 172/108/2 169/97/2
f 172/108/2 168/109/2 169/97/2
f 166/68/3 161/102/3 163/69/3
f 169/97/2 166/68/2 167/70/2
f 161/20/5 122/22/5 113/23/5
f 168/39/8 172/65/8 136/64/8
f 141/71/4 123/24/4 124/62/4
f 164/73/5 118/16/5 114/12/5
f 160/74/5 144/88/5 148/75/5
usemtl Cream_house04
f 2/110/3 3/111/3 1/112/3
f 4/113/15 7/114/15 3/111/15
f 8/115/2 5/116/2 7/114/2
f 6/117/16 1/118/16 5/116/16
f 7/114/1 1/119/1 3/120/1
f 4/121/5 6/117/5 8/115/5
f 10/122/5 11/123/5 9/124/5
f 12/125/15 15/126/15 11/123/15
f 16/127/1 13/128/1 15/126/1
f 14/129/16 9/130/16 13/128/16
f 15/126/3 9/131/3 11/132/3
f 12/133/2 14/129/2 16/127/2
f 34/134/3 36/135/3 33/136/3
f 31/137/3 30/138/3 32/139/3
f 38/140/2 40/141/2 37/142/2
f 32/139/1 26/143/1 28/144/1
f 37/142/1 33/145/1 36/146/1
f 35/147/5 39/148/5 38/140/5
f 26/143/16 33/149/16 25/150/16
f 27/151/15 35/152/15 28/144/15
f 31/137/15 36/135/15 27/151/15
f 28/144/15 38/140/15 32/139/15
f 32/139/15 37/142/15 31/137/15
f 29/153/16 39/148/16 30/138/16
f 25/150/16 40/141/16 29/153/16
f 30/138/16 34/154/16 26/143/16
f 27/151/5 29/153/5 31/137/5
f 28/144/2 25/150/2 27/151/2
f 50/155/3 52/156/3 49/157/3
f 47/158/3 46/159/3 48/160/3
f 54/161/2 56/162/2 53/163/2
f 48/160/1 42/164/1 44/165/1
f 53/163/1 49/166/1 52/167/1
f 51/168/5 55/169/5 54/161/5
f 41/170/16 50/171/16 49/172/16
f 44/165/15 52/156/15 51/173/15
f 47/158/15 52/156/15 43/174/15
f 44/165/15 54/161/15 48/160/15
f 47/158/15 54/161/15 53/163/15
f 46/159/16 56/162/16 55/169/16
f 41/170/16 56/162/16 45/175/16
f 46/159/16 50/171/16 42/164/16
f 43/174/5 45/175/5 47/158/5
f 44/165/2 41/170/2 43/174/2
f 68/176/2 66/177/2 65/178/2
f 62/179/2 63/180/2 64/181/2
f 72/182/3 70/183/3 69/184/3
f 58/185/1 64/181/1 60/186/1
f 65/187/1 69/184/1 68/188/1
f 71/189/5 67/190/5 70/183/5
f 65/191/16 58/185/16 57/192/16
f 67/193/15 59/194/15 60/186/15
f 68/176/15 63/180/15 59/194/15
f 70/183/15 60/186/15 64/181/15
f 69/184/15 64/181/15 63/180/15
f 71/189/16 61/195/16 62/179/16
f 72/182/16 57/192/16 61/195/16
f 66/196/16 62/179/16 58/185/16
f 61/195/5 59/194/5 63/180/5
f 57/192/3 60/186/3 59/194/3
f 74/197/3 75/198/3 73/199/3
f 76/200/15 79/201/15 75/198/15
f 80/202/2 77/203/2 79/201/2
f 78/204/16 73/205/16 77/203/16
f 79/201/1 73/206/1 75/207/1
f 76/208/5 78/204/5 80/202/5
f 82/209/5 83/210/5 81/211/5
f 84/212/15 87/213/15 83/210/15
f 88/214/1 85/215/1 87/213/1
f 86/216/16 81/217/16 85/215/16
f 87/213/3 81/218/3 83/219/3
f 84/220/2 86/216/2 88/214/2
f 91/221/2 90/222/2 89/223/2
f 95/224/15 92/225/15 91/221/15
f 93/226/3 96/227/3 95/224/3
f 89/228/16 94/229/16 93/226/16
f 89/230/1 95/224/1 91/231/1
f 94/229/5 92/232/5 96/227/5
f 99/233/5 98/234/5 97/235/5
f 103/236/15 100/237/15 99/233/15
f 101/238/1 104/239/1 103/236/1
f 97/240/16 102/241/16 101/238/16
f 97/242/2 103/236/2 99/243/2
f 102/241/3 100/244/3 104/239/3
f 182/245/3 184/246/3 181/247/3
f 186/248/2 188/249/2 185/250/2
f 185/250/1 181/251/1 184/252/1
f 183/253/5 187/254/5 186/248/5
f 174/255/16 181/256/16 173/257/16
f 175/258/15 183/259/15 176/260/15
f 179/261/15 184/246/15 175/258/15
f 176/260/15 186/248/15 180/262/15
f 180/262/15 185/250/15 179/261/15
f 177/263/16 187/254/16 178/264/16
f 173/257/16 188/249/16 177/263/16
f 178/264/16 182/265/16 174/255/16
f 180/262/1 174/255/1 176/260/1
f 179/261/3 178/264/3 180/262/3
f 175/258/5 177/263/5 179/261/5
f 176/260/2 173/257/2 175/258/2
f 2/110/3 4/113/3 3/111/3
f 4/113/15 8/115/15 7/114/15
f 8/115/2 6/117/2 5/116/2
f 6/117/16 2/266/16 1/118/16
f 7/114/1 5/116/1 1/119/1
f 4/121/5 2/267/5 6/117/5
f 10/122/5 12/125/5 11/123/5
f 12/125/15 16/127/15 15/126/15
f 16/127/1 14/129/1 13/128/1
f 14/129/16 10/268/16 9/130/16
f 15/126/3 13/128/3 9/131/3
f 12/133/2 10/269/2 14/129/2
f 34/134/3 35/152/3 36/135/3
f 31/137/3 29/153/3 30/138/3
f 38/140/2 39/148/2 40/141/2
f 32/139/1 30/138/1 26/143/1
f 37/142/1 40/141/1 33/145/1
f 35/147/5 34/270/5 39/148/5
f 26/143/16 34/154/16 33/149/16
f 27/151/15 36/135/15 35/152/15
f 31/137/15 37/142/15 36/135/15
f 28/144/15 35/152/15 38/140/15
f 32/139/15 38/140/15 37/142/15
f 29/153/16 40/141/16 39/148/16
f 25/150/16 33/149/16 40/141/16
f 30/138/16 39/148/16 34/154/16
f 27/151/5 25/150/5 29/153/5
f 28/144/2 26/143/2 25/150/2
f 50/155/3 51/173/3 52/156/3
f 47/158/3 45/175/3 46/159/3
f 54/161/2 55/169/2 56/162/2
f 48/160/1 46/159/1 42/164/1
f 53/163/1 56/162/1 49/166/1
f 51/168/5 50/271/5 55/169/5
f 41/170/16 42/164/16 50/171/16
f 44/165/15 43/174/15 52/156/15
f 47/158/15 53/163/15 52/156/15
f 44/165/15 51/173/15 54/161/15
f 47/158/15 48/160/15 54/161/15
f 46/159/16 45/175/16 56/162/16
f 41/170/16 49/172/16 56/162/16
f 46/159/16 55/169/16 50/171/16
f 43/174/5 41/170/5 45/175/5
f 44/165/2 42/164/2 41/170/2
f 68/176/2 67/193/2 66/177/2
f 62/179/2 61/195/2 63/180/2
f 72/182/3 71/189/3 70/183/3
f 58/185/1 62/179/1 64/181/1
f 65/187/1 72/182/1 69/184/1
f 71/189/5 66/272/5 67/190/5
f 65/191/16 66/196/16 58/185/16
f 67/193/15 68/176/15 59/194/15
f 68/176/15 69/184/15 63/180/15
f 70/183/15 67/193/15 60/186/15
f 69/184/15 70/183/15 64/181/15
f 71/189/16 72/182/16 61/195/16
f 72/182/16 65/191/16 57/192/16
f 66/196/16 71/189/16 62/179/16
f 61/195/5 57/192/5 59/194/5
f 57/192/3 58/185/3 60/186/3
f 74/197/3 76/200/3 75/198/3
f 76/200/15 80/202/15 79/201/15
f 80/202/2 78/204/2 77/203/2
f 78/204/16 74/273/16 73/205/16
f 79/201/1 77/203/1 73/206/1
f 76/208/5 74/274/5 78/204/5
f 82/209/5 84/212/5 83/210/5
f 84/212/15 88/214/15 87/213/15
f 88/214/1 86/216/1 85/215/1
f 86/216/16 82/275/16 81/217/16
f 87/213/3 85/215/3 81/218/3
f 84/220/2 82/276/2 86/216/2
f 91/221/2 92/225/2 90/222/2
f 95/224/15 96/227/15 92/225/15
f 93/226/3 94/229/3 96/227/3
f 89/228/16 90/277/16 94/229/16
f 89/230/1 93/226/1 95/224/1
f 94/229/5 90/278/5 92/232/5
f 99/233/5 100/237/5 98/234/5
f 103/236/15 104/239/15 100/237/15
f 101/238/1 102/241/1 104/239/1
f 97/240/16 98/279/16 102/241/16
f 97/242/2 101/238/2 103/236/2
f 102/241/3 98/280/3 100/244/3
f 182/245/3 183/259/3 184/246/3
f 186/248/2 187/254/2 188/249/2
f 185/250/1 188/249/1 181/251/1
f 183/253/5 182/281/5 187/254/5
f 174/255/16 182/265/16 181/256/16
f 175/258/15 184/246/15 183/259/15
f 179/261/15 185/250/15 184/246/15
f 176/260/15 183/259/15 186/248/15
f 180/262/15 186/248/15 185/250/15
f 177/263/16 188/249/16 187/254/16
f 173/257/16 181/256/16 188/249/16
f 178/264/16 187/254/16 182/265/16
f 180/262/1 178/264/1 174/255/1
f 179/261/3 177/263/3 178/264/3
f 175/258/5 173/257/5 177/263/5
f 176/260/2 174/255/2 173/257/2
usemtl Window_house04
f 18/282/3 19/283/3 17/284/3
f 20/285/15 23/286/15 19/283/15
f 24/287/2 21/288/2 23/286/2
f 22/289/16 17/290/16 21/288/16
f 23/286/1 17/291/1 19/292/1
f 20/293/5 22/289/5 24/287/5
f 18/282/3 20/285/3 19/283/3
f 20/285/15 24/287/15 23/286/15
f 24/287/2 22/289/2 21/288/2
f 22/289/16 18/294/16 17/290/16
f 23/286/1 21/288/1 17/291/1
f 20/293/5 18/295/5 22/289/5
