# Blender v2.90.0 OBJ File: 'ArcWall01_house_01.blend'
# www.blender.org
mtllib ArcWall01_house_01.mtl
o ArcWall01_Cube
v 0.234064 -0.100634 -0.618202
v -0.234064 1.090846 -1.854606
v -0.234064 -0.634748 -2.472809
v -0.234064 1.090846 -2.472809
v -0.234064 1.090846 -1.236404
v -0.234064 1.090846 -0.618202
v 0.234064 -0.634748 -2.472809
v 0.234064 1.090846 -2.472809
v 0.234064 -0.385583 -1.236404
v 0.234064 -0.634748 -1.854606
v -0.234064 -0.634748 -1.854606
v -0.234064 -0.385583 -1.236404
v -0.234064 -0.100634 -0.618202
v 0.234064 1.090846 -1.854606
v 0.234064 1.066260 -1.236404
v 0.234064 1.090846 -0.618202
v -0.234064 -0.270496 -2.472809
v 0.234064 -0.270496 -2.472809
v 0.234064 -0.270496 -1.854606
v 0.234064 -0.074627 -1.236404
v 0.234064 0.158015 -0.618202
v -0.234064 0.158015 -0.618202
v -0.234064 -0.074627 -1.236404
v -0.234064 -0.270496 -1.854606
v -0.418677 -0.634748 -1.854606
v -0.418677 -0.385583 -1.236404
v -0.418677 -0.634748 -2.472809
v 0.418677 -0.634748 -2.472809
v 0.418677 -0.634748 -1.854606
v 0.418677 -0.385583 -1.236404
v 0.418677 -0.100634 -0.618202
v -0.418677 -0.100634 -0.618202
v -0.418677 -0.364036 -2.472809
v -0.399439 -0.270496 -2.472809
v 0.399439 -0.270496 -2.472809
v 0.418677 -0.364036 -2.472809
v 0.418677 -0.364489 -1.854606
v 0.399439 -0.270496 -1.854606
v 0.399439 -0.074627 -1.236404
v 0.418677 -0.169698 -1.236404
v 0.418677 0.062818 -0.618202
v 0.399439 0.158015 -0.618202
v -0.418677 0.062818 -0.618202
v -0.399439 0.158015 -0.618202
v -0.418677 -0.169698 -1.236404
v -0.399439 -0.074627 -1.236404
v -0.399439 -0.270496 -1.854606
v -0.418677 -0.364489 -1.854606
v 0.234064 -0.100634 0.618202
v -0.234064 1.090846 1.854606
v -0.234064 -0.634748 2.472809
v -0.234064 1.090846 2.472809
v -0.234064 1.090846 1.236404
v -0.234064 1.090846 0.618202
v 0.234064 -0.634748 2.472809
v 0.234064 1.090846 2.472809
v -0.234064 0.002407 0.000000
v -0.234064 1.090846 0.000000
v 0.234064 0.002407 0.000000
v 0.234064 1.090846 0.000000
v 0.234064 -0.385583 1.236404
v 0.234064 -0.634748 1.854606
v -0.234064 -0.634748 1.854606
v -0.234064 -0.385583 1.236404
v -0.234064 -0.100634 0.618202
v 0.234064 1.090846 1.854606
v 0.234064 1.066260 1.236404
v 0.234064 1.090846 0.618202
v -0.234064 -0.270496 2.472809
v 0.234064 -0.270496 2.472809
v 0.234064 0.273747 0.000000
v -0.234064 0.273747 0.000000
v 0.234064 -0.270496 1.854606
v 0.234064 -0.074627 1.236404
v 0.234064 0.158015 0.618202
v -0.234064 0.158015 0.618202
v -0.234064 -0.074627 1.236404
v -0.234064 -0.270496 1.854606
v -0.418677 -0.634748 1.854606
v -0.418677 -0.385583 1.236404
v -0.418677 -0.634748 2.472809
v 0.418677 -0.634748 2.472809
v 0.418677 -0.634748 1.854606
v 0.418677 -0.385583 1.236404
v 0.418677 -0.100634 0.618202
v -0.418677 -0.100634 0.618202
v -0.418677 0.002407 0.000000
v 0.418677 0.002407 0.000000
v -0.418677 -0.364036 2.472809
v -0.399439 -0.270496 2.472809
v 0.399439 -0.270496 2.472809
v 0.418677 -0.364036 2.472809
v 0.418677 0.178729 0.000000
v 0.399439 0.273747 0.000000
v -0.399439 0.273747 0.000000
v -0.418677 0.178728 0.000000
v 0.418677 -0.364489 1.854606
v 0.399439 -0.270496 1.854606
v 0.399439 -0.074627 1.236404
v 0.418677 -0.169698 1.236404
v 0.418677 0.062818 0.618202
v 0.399439 0.158015 0.618202
v -0.418677 0.062818 0.618202
v -0.399439 0.158015 0.618202
v -0.418677 -0.169698 1.236404
v -0.399439 -0.074627 1.236404
v -0.399439 -0.270496 1.854606
v -0.418677 -0.364489 1.854606
vt 0.625000 0.218750
vt 0.428545 0.250000
vt 0.428545 0.218750
vt 0.625000 0.250000
vt 0.428545 0.500000
vt 0.625000 0.500000
vt 0.428545 0.531250
vt 0.625000 0.562500
vt 0.428545 0.593750
vt 0.428545 0.562500
vt 0.625000 0.531250
vt 0.875000 0.593750
vt 0.625000 0.625000
vt 0.625000 0.593750
vt 0.428545 0.625000
vt 0.875000 0.500000
vt 0.875000 0.562500
vt 0.428545 0.125000
vt 0.625000 0.156250
vt 0.428545 0.156250
vt 0.625000 0.187500
vt 0.428545 0.187500
vt 0.428545 0.250000
vt 0.625000 0.218750
vt 0.428545 0.218750
vt 0.428545 0.500000
vt 0.625000 0.250000
vt 0.428545 0.531250
vt 0.625000 0.500000
vt 0.428545 0.593750
vt 0.625000 0.562500
vt 0.428545 0.562500
vt 0.625000 0.531250
vt 0.875000 0.593750
vt 0.625000 0.593750
vt 0.875000 0.500000
vt 0.875000 0.562500
vt 0.875000 0.531250
vt 0.625000 0.156250
vt 0.625000 0.125000
vt 0.428545 0.156250
vt 0.625000 0.187500
vt 0.428545 0.187500
vt 0.875000 0.625000
vt 0.875000 0.531250
vt 0.375000 0.500000
vt 0.125000 0.531250
vt 0.125000 0.500000
vt 0.375000 0.593750
vt 0.125000 0.625000
vt 0.125000 0.593750
vt 0.375000 0.531250
vt 0.125000 0.562500
vt 0.375000 0.562500
vt 0.375000 0.156250
vt 0.412174 0.187500
vt 0.375000 0.187500
vt 0.375000 0.625000
vt 0.375000 0.625000
vt 0.412174 0.562500
vt 0.375000 0.593750
vt 0.375000 0.562500
vt 0.125000 0.562500
vt 0.125000 0.593750
vt 0.428545 0.125000
vt 0.375000 0.250000
vt 0.375000 0.125000
vt 0.408838 0.156250
vt 0.428545 0.187500
vt 0.428545 0.156250
vt 0.414728 0.531250
vt 0.375000 0.531250
vt 0.428545 0.593750
vt 0.428545 0.531250
vt 0.428545 0.562500
vt 0.428545 0.500000
vt 0.428545 0.218750
vt 0.125000 0.531250
vt 0.414795 0.500000
vt 0.125000 0.500000
vt 0.375000 0.500000
vt 0.414728 0.218750
vt 0.375000 0.218750
vt 0.375000 0.250000
vt 0.408838 0.593750
vt 0.406917 0.125000
vt 0.406917 0.625000
vt 0.414795 0.250000
vt 0.125000 0.531250
vt 0.375000 0.500000
vt 0.125000 0.500000
vt 0.375000 0.593750
vt 0.125000 0.593750
vt 0.125000 0.562500
vt 0.375000 0.531250
vt 0.375000 0.562500
vt 0.375000 0.156250
vt 0.412174 0.187500
vt 0.408838 0.156250
vt 0.000000 0.000000
vt 0.000000 0.000000
vt 0.000000 0.000000
vt 0.375000 0.593750
vt 0.412174 0.562500
vt 0.375000 0.562500
vt 0.125000 0.562500
vt 0.125000 0.593750
vt 0.375000 0.250000
vt 0.428545 0.187500
vt 0.428545 0.156250
vt 0.414728 0.531250
vt 0.375000 0.531250
vt 0.428545 0.593750
vt 0.428545 0.531250
vt 0.428545 0.562500
vt 0.428545 0.500000
vt 0.428545 0.218750
vt 0.125000 0.531250
vt 0.414795 0.500000
vt 0.125000 0.500000
vt 0.375000 0.500000
vt 0.375000 0.187500
vt 0.414728 0.218750
vt 0.375000 0.250000
vt 0.375000 0.218750
vt 0.408838 0.593750
vt 0.000000 0.000000
vt 0.000000 0.000000
vt 0.000000 0.000000
vt 0.428545 0.625000
vt 0.414795 0.250000
vt 0.428545 0.250000
vt 0.125000 0.625000
vt 0.428545 0.250000
vt 0.000000 0.000000
vt 0.000000 0.000000
vt 0.000000 0.000000
vt 0.000000 0.000000
vn -1.0000 0.0000 0.0000
vn 0.0000 0.0000 -1.0000
vn 1.0000 0.0000 0.0000
vn 0.0000 1.0000 0.0000
vn 0.0524 0.9978 0.0397
vn 0.0524 0.9978 -0.0397
vn 0.0000 0.0000 1.0000
vn 0.0000 -1.0000 0.0000
vn 0.0000 -0.9864 0.1644
vn 0.0000 -0.9275 0.3738
vn 0.0000 -0.9082 0.4186
vn 0.0000 0.9829 -0.1840
vn 0.0000 0.9533 -0.3020
vn 0.0000 0.9359 -0.3522
vn -0.9782 0.1979 -0.0627
vn -0.9775 0.1975 -0.0743
vn -0.9794 0.1983 -0.0371
vn 0.9795 0.1979 -0.0371
vn 0.9777 0.2001 -0.0631
vn 0.9774 0.1978 -0.0744
vn 0.9795 0.2015 0.0000
vn -0.9797 0.2005 0.0001
vn 0.0000 -0.9864 -0.1644
vn 0.0000 -0.9275 -0.3738
vn 0.0000 -0.9082 -0.4186
vn 0.0000 0.9829 0.1840
vn 0.0000 0.9533 0.3020
vn 0.0000 0.9359 0.3522
vn -0.9782 0.1979 0.0627
vn -0.9775 0.1975 0.0743
vn -0.9794 0.1983 0.0371
vn 0.9794 0.1983 0.0371
vn 0.9782 0.1979 0.0627
vn 0.9775 0.1975 0.0743
vn -0.9795 0.2015 0.0000
vn -0.9777 0.2001 -0.0631
vn -0.9774 0.1978 -0.0744
vn -0.9795 0.1979 -0.0371
vn 0.9794 0.1983 -0.0371
vn 0.9782 0.1979 -0.0627
vn 0.9775 0.1975 -0.0743
vn 0.9797 0.2005 0.0001
vn -0.9777 0.2001 0.0631
vn -0.9774 0.1978 0.0744
vn -0.9795 0.1979 0.0371
vn 0.9795 0.1979 0.0371
vn 0.9777 0.2001 0.0631
vn 0.9774 0.1978 0.0744
vn 0.9797 0.2005 -0.0001
vn -0.9797 0.2005 -0.0001
usemtl LightBrown_House01
s off
f 2/1/1 17/2/1 24/3/1
f 4/4/2 18/5/2 17/2/2
f 8/6/3 19/7/3 18/5/3
f 15/8/3 21/9/3 20/10/3
f 14/11/3 20/10/3 19/7/3
f 6/12/4 60/13/4 16/14/4
f 16/14/3 71/15/3 21/9/3
f 4/16/4 14/11/4 8/6/4
f 14/11/5 5/17/5 15/8/5
f 5/17/6 16/14/6 15/8/6
f 72/18/1 6/19/1 22/20/1
f 22/20/1 5/21/1 23/22/1
f 23/22/1 2/1/1 24/3/1
f 69/23/1 50/24/1 78/25/1
f 70/26/7 52/27/7 69/23/7
f 73/28/3 56/29/3 70/26/3
f 75/30/3 67/31/3 74/32/3
f 74/32/3 66/33/3 73/28/3
f 60/13/4 54/34/4 68/35/4
f 71/15/3 68/35/3 75/30/3
f 66/33/4 52/36/4 56/29/4
f 66/33/4 53/37/4 50/38/4
f 68/35/5 53/37/5 67/31/5
f 72/18/1 54/39/1 58/40/1
f 76/41/1 53/42/1 54/39/1
f 77/43/1 50/24/1 53/42/1
f 2/1/1 4/4/1 17/2/1
f 4/4/2 8/6/2 18/5/2
f 8/6/3 14/11/3 19/7/3
f 15/8/3 16/14/3 21/9/3
f 14/11/3 15/8/3 20/10/3
f 6/12/4 58/44/4 60/13/4
f 16/14/3 60/13/3 71/15/3
f 4/16/4 2/45/4 14/11/4
f 14/11/4 2/45/4 5/17/4
f 5/17/4 6/12/4 16/14/4
f 72/18/1 58/40/1 6/19/1
f 22/20/1 6/19/1 5/21/1
f 23/22/1 5/21/1 2/1/1
f 69/23/1 52/27/1 50/24/1
f 70/26/7 56/29/7 52/27/7
f 73/28/3 66/33/3 56/29/3
f 75/30/3 68/35/3 67/31/3
f 74/32/3 67/31/3 66/33/3
f 60/13/4 58/44/4 54/34/4
f 71/15/3 60/13/3 68/35/3
f 66/33/4 50/38/4 52/36/4
f 66/33/6 67/31/6 53/37/6
f 68/35/4 54/34/4 53/37/4
f 72/18/1 76/41/1 54/39/1
f 76/41/1 77/43/1 53/42/1
f 77/43/1 78/25/1 50/24/1
usemtl Cream_House01
f 7/46/8 11/47/8 3/48/8
f 1/49/9 57/50/9 13/51/9
f 10/52/10 12/53/10 11/47/10
f 9/54/11 13/51/11 12/53/11
f 32/55/1 45/56/1 26/57/1
f 1/49/9 88/58/9 59/59/9
f 40/60/3 31/61/3 30/62/3
f 13/51/11 26/63/11 12/53/11
f 57/50/9 32/64/9 13/51/9
f 22/20/12 95/65/12 72/18/12
f 17/2/2 7/46/2 3/66/2
f 87/67/1 43/68/1 32/55/1
f 24/3/13 46/69/13 23/22/13
f 23/22/14 44/70/14 22/20/14
f 37/71/3 30/62/3 29/72/3
f 71/15/12 42/73/12 21/9/12
f 20/10/13 38/74/13 19/7/13
f 21/9/14 39/75/14 20/10/14
f 19/7/4 35/76/4 18/5/4
f 17/2/4 47/77/4 24/3/4
f 7/46/8 29/72/8 10/52/8
f 12/53/10 25/78/10 11/47/10
f 18/5/2 35/76/2 36/79/2
f 11/47/8 27/80/8 3/48/8
f 28/81/3 37/71/3 29/72/3
f 26/57/1 48/82/1 25/83/1
f 10/52/10 30/62/10 9/54/10
f 48/82/1 27/84/1 25/83/1
f 41/85/3 88/58/3 31/61/3
f 9/54/11 31/61/11 1/49/11
f 47/77/15 45/56/15 46/69/15
f 46/69/16 43/68/16 44/70/16
f 44/70/17 96/86/17 95/65/17
f 42/73/18 93/87/18 41/85/18
f 38/74/19 40/60/19 37/71/19
f 39/75/20 41/85/20 40/60/20
f 38/74/21 36/79/21 35/76/21
f 47/77/22 33/88/22 48/82/22
f 3/66/2 27/84/2 33/88/2
f 63/89/8 55/90/8 51/91/8
f 57/50/23 49/92/23 65/93/23
f 64/94/24 62/95/24 63/89/24
f 65/93/25 61/96/25 64/94/25
f 86/97/1 105/98/1 103/99/1
f 93/100/2 88/101/2 59/102/2
f 88/58/23 49/92/23 59/59/23
f 85/103/3 100/104/3 84/105/3
f 80/106/25 65/93/25 64/94/25
f 86/107/23 57/50/23 65/93/23
f 95/65/26 76/41/26 72/18/26
f 55/90/7 69/23/7 51/108/7
f 87/67/1 103/99/1 96/86/1
f 106/109/27 78/25/27 77/43/27
f 104/110/28 77/43/28 76/41/28
f 84/105/3 97/111/3 83/112/3
f 102/113/26 71/15/26 75/30/26
f 98/114/27 74/32/27 73/28/27
f 99/115/28 75/30/28 74/32/28
f 91/116/4 73/28/4 70/26/4
f 107/117/4 69/23/4 78/25/4
f 83/112/8 55/90/8 62/95/8
f 79/118/24 64/94/24 63/89/24
f 92/119/7 91/116/7 70/26/7
f 81/120/8 63/89/8 51/91/8
f 82/121/3 97/111/3 92/119/3
f 80/122/1 108/123/1 105/98/1
f 84/105/24 62/95/24 61/96/24
f 81/124/1 108/123/1 79/125/1
f 88/58/3 101/126/3 85/103/3
f 96/127/2 95/128/2 72/129/2
f 85/103/25 61/96/25 49/92/25
f 105/98/29 107/117/29 106/109/29
f 103/99/30 106/109/30 104/110/30
f 96/86/31 104/110/31 95/65/31
f 102/113/32 93/87/32 94/130/32
f 98/114/33 100/104/33 99/115/33
f 99/115/34 101/126/34 102/113/34
f 92/119/21 98/114/21 91/116/21
f 107/117/35 89/131/35 90/132/35
f 89/131/7 81/124/7 51/108/7
f 7/46/8 10/52/8 11/47/8
f 1/49/9 59/59/9 57/50/9
f 10/52/10 9/54/10 12/53/10
f 9/54/11 1/49/11 13/51/11
f 32/55/1 43/68/1 45/56/1
f 1/49/9 31/61/9 88/58/9
f 40/60/3 41/85/3 31/61/3
f 13/51/11 32/64/11 26/63/11
f 57/50/9 87/133/9 32/64/9
f 22/20/12 44/70/12 95/65/12
f 17/2/2 18/5/2 7/46/2
f 87/67/1 96/86/1 43/68/1
f 24/3/13 47/77/13 46/69/13
f 23/22/14 46/69/14 44/70/14
f 37/71/3 40/60/3 30/62/3
f 71/15/12 94/130/12 42/73/12
f 20/10/13 39/75/13 38/74/13
f 21/9/14 42/73/14 39/75/14
f 19/7/4 38/74/4 35/76/4
f 17/2/4 34/134/4 47/77/4
f 7/46/8 28/81/8 29/72/8
f 12/53/10 26/63/10 25/78/10
f 28/81/2 7/46/2 36/79/2
f 7/46/2 18/5/2 36/79/2
f 11/47/8 25/78/8 27/80/8
f 28/81/3 36/79/3 37/71/3
f 26/57/1 45/56/1 48/82/1
f 10/52/10 29/72/10 30/62/10
f 48/82/1 33/88/1 27/84/1
f 41/85/3 93/87/3 88/58/3
f 9/54/11 30/62/11 31/61/11
f 47/77/36 48/82/36 45/56/36
f 46/69/37 45/56/37 43/68/37
f 44/70/38 43/68/38 96/86/38
f 42/73/39 94/130/39 93/87/39
f 38/74/40 39/75/40 40/60/40
f 39/75/41 42/73/41 41/85/41
f 38/74/42 37/71/42 36/79/42
f 47/77/35 34/134/35 33/88/35
f 34/134/2 17/2/2 33/88/2
f 17/2/2 3/66/2 33/88/2
f 63/89/8 62/95/8 55/90/8
f 57/50/23 59/59/23 49/92/23
f 64/94/24 61/96/24 62/95/24
f 65/93/25 49/92/25 61/96/25
f 86/97/1 80/122/1 105/98/1
f 59/102/2 71/135/2 93/100/2
f 71/135/2 94/136/2 93/100/2
f 88/58/23 85/103/23 49/92/23
f 85/103/3 101/126/3 100/104/3
f 80/106/25 86/107/25 65/93/25
f 86/107/23 87/133/23 57/50/23
f 95/65/26 104/110/26 76/41/26
f 55/90/7 70/26/7 69/23/7
f 87/67/1 86/97/1 103/99/1
f 106/109/27 107/117/27 78/25/27
f 104/110/28 106/109/28 77/43/28
f 84/105/3 100/104/3 97/111/3
f 102/113/26 94/130/26 71/15/26
f 98/114/27 99/115/27 74/32/27
f 99/115/28 102/113/28 75/30/28
f 91/116/4 98/114/4 73/28/4
f 107/117/4 90/132/4 69/23/4
f 83/112/8 82/121/8 55/90/8
f 79/118/24 80/106/24 64/94/24
f 70/26/7 55/90/7 92/119/7
f 55/90/7 82/121/7 92/119/7
f 81/120/8 79/118/8 63/89/8
f 82/121/3 83/112/3 97/111/3
f 80/122/1 79/125/1 108/123/1
f 84/105/24 83/112/24 62/95/24
f 81/124/1 89/131/1 108/123/1
f 88/58/3 93/87/3 101/126/3
f 72/129/2 57/137/2 96/127/2
f 57/137/2 87/138/2 96/127/2
f 85/103/25 84/105/25 61/96/25
f 105/98/43 108/123/43 107/117/43
f 103/99/44 105/98/44 106/109/44
f 96/86/45 103/99/45 104/110/45
f 102/113/46 101/126/46 93/87/46
f 98/114/47 97/111/47 100/104/47
f 99/115/48 100/104/48 101/126/48
f 92/119/49 97/111/49 98/114/49
f 107/117/50 108/123/50 89/131/50
f 51/108/7 69/23/7 89/131/7
f 69/23/7 90/132/7 89/131/7
