# Blender v2.90.0 OBJ File: 'Wall_house01.blend'
# www.blender.org
mtllib Wall_house01.mtl
o Wall01_House01_Cube
v 0.130000 0.942072 -1.050678
v 0.130000 -2.062439 -1.050678
v 0.130000 0.942072 1.050678
v 0.130000 -2.062439 1.050678
v -0.130000 0.942072 -1.050678
v -0.130000 -2.062439 -1.050678
v -0.130000 0.942072 1.050678
v -0.130000 -2.062439 1.050678
v 0.234007 0.901409 1.287992
v -0.234007 1.218386 1.287992
v 0.234007 0.901409 1.003296
v -0.234007 1.218386 1.003296
v -0.234007 0.901409 1.003296
v 0.234007 1.218386 1.287992
v -0.234007 0.901409 1.287992
v 0.234007 1.218386 1.003296
v -0.234007 -2.089560 1.287992
v -0.234007 -2.089560 1.003296
v 0.234007 -2.089560 1.003296
v 0.234007 -2.089560 1.287992
v 0.234007 0.901409 -1.287992
v -0.234007 1.218386 -1.287992
v 0.234007 0.901409 -1.003296
v -0.234007 1.218386 -1.003296
v -0.234007 0.901409 -1.003296
v 0.234007 1.218386 -1.287992
v -0.234007 0.901409 -1.287992
v 0.234007 1.218386 -1.003296
v -0.234007 -2.089560 -1.287992
v -0.234007 -2.089560 -1.003296
v 0.234007 -2.089560 -1.003296
v 0.234007 -2.089560 -1.287992
v -0.234007 1.218385 0.000000
v 0.234007 1.218385 0.000000
v 0.234007 0.901409 0.000000
v -0.234007 0.901409 0.000000
vt 0.875000 0.500000
vt 0.625000 0.750000
vt 0.625000 0.500000
vt 0.375000 1.000000
vt 0.375000 0.750000
vt 0.625000 0.000000
vt 0.375000 0.250000
vt 0.375000 0.000000
vt 0.375000 0.500000
vt 0.125000 0.750000
vt 0.125000 0.500000
vt 0.625000 0.250000
vt 0.875000 0.750000
vt 0.625000 1.000000
vt 0.625000 0.000000
vt 0.600000 0.250000
vt 0.600000 0.000000
vt 0.600000 0.500000
vt 0.625000 0.500000
vt 0.625000 0.500000
vt 0.600000 0.750000
vt 0.625000 0.750000
vt 0.600000 1.000000
vt 0.875000 0.500000
vt 0.500000 0.500000
vt 0.500000 0.250000
vt 0.500000 1.000000
vt 0.500000 0.750000
vt 0.500000 0.000000
vt 0.875000 0.500000
vt 0.600000 0.500000
vt 0.625000 0.250000
vt 0.600000 0.250000
vt 0.600000 0.250000
vt 0.625000 0.000000
vt 0.600000 0.000000
vt 0.600000 0.500000
vt 0.625000 0.500000
vt 0.600000 0.750000
vt 0.600000 1.000000
vt 0.625000 0.750000
vt 0.875000 0.500000
vt 0.500000 0.500000
vt 0.500000 0.250000
vt 0.500000 1.000000
vt 0.500000 0.750000
vt 0.500000 0.000000
vt 0.625000 0.250000
vt 0.625000 0.250000
vt 0.625000 1.000000
vt 0.875000 0.750000
vt 0.625000 1.000000
vt 0.875000 0.750000
vn 0.0000 1.0000 0.0000
vn 0.0000 0.0000 1.0000
vn -1.0000 0.0000 0.0000
vn 0.0000 -1.0000 0.0000
vn 1.0000 0.0000 0.0000
vn 0.0000 0.0000 -1.0000
usemtl Cream_House01
s off
f 5/1/1 3/2/1 1/3/1
f 3/2/2 8/4/2 4/5/2
f 7/6/3 6/7/3 8/8/3
f 2/9/4 8/10/4 6/11/4
f 1/3/5 4/5/5 2/9/5
f 5/12/6 2/9/6 6/7/6
f 5/1/1 7/13/1 3/2/1
f 3/2/2 7/14/2 8/4/2
f 7/6/3 5/12/3 6/7/3
f 2/9/4 4/5/4 8/10/4
f 1/3/5 3/2/5 4/5/5
f 5/12/6 1/3/6 2/9/6
usemtl LightBrown_House01
f 10/15/3 13/16/3 15/17/3
f 11/18/5 34/19/5 16/20/5
f 16/20/5 9/21/5 11/18/5
f 14/22/2 15/23/2 9/21/2
f 12/24/1 14/22/1 16/20/1
f 13/16/6 19/25/6 18/26/6
f 9/21/2 17/27/2 20/28/2
f 11/18/5 20/28/5 19/25/5
f 15/17/3 18/26/3 17/29/3
f 16/20/1 33/30/1 12/24/1
f 13/16/4 35/31/4 11/18/4
f 13/16/3 33/32/3 36/33/3
f 25/34/3 22/35/3 27/36/3
f 34/19/5 23/37/5 28/38/5
f 21/39/5 28/38/5 23/37/5
f 27/40/6 26/41/6 21/39/6
f 26/41/1 24/42/1 28/38/1
f 31/43/2 25/34/2 30/44/2
f 29/45/6 21/39/6 32/46/6
f 32/46/5 23/37/5 31/43/5
f 30/44/3 27/36/3 29/47/3
f 33/30/1 28/38/1 24/42/1
f 35/31/4 25/34/4 23/37/4
f 25/34/3 33/32/3 24/48/3
f 10/15/3 12/49/3 13/16/3
f 11/18/5 35/31/5 34/19/5
f 16/20/5 14/22/5 9/21/5
f 14/22/2 10/50/2 15/23/2
f 12/24/1 10/51/1 14/22/1
f 13/16/6 11/18/6 19/25/6
f 9/21/2 15/23/2 17/27/2
f 11/18/5 9/21/5 20/28/5
f 15/17/3 13/16/3 18/26/3
f 16/20/1 34/19/1 33/30/1
f 13/16/4 36/33/4 35/31/4
f 13/16/3 12/49/3 33/32/3
f 25/34/3 24/48/3 22/35/3
f 34/19/5 35/31/5 23/37/5
f 21/39/5 26/41/5 28/38/5
f 27/40/6 22/52/6 26/41/6
f 26/41/1 22/53/1 24/42/1
f 31/43/2 23/37/2 25/34/2
f 29/45/6 27/40/6 21/39/6
f 32/46/5 21/39/5 23/37/5
f 30/44/3 25/34/3 27/36/3
f 33/30/1 34/19/1 28/38/1
f 35/31/4 36/33/4 25/34/4
f 25/34/3 36/33/3 33/32/3
