# Blender v2.90.0 OBJ File: 'Wall03_house01.blend'
# www.blender.org
mtllib Wall03_house01.mtl
o wall03_house01_Cube.018
v 0.128697 2.991765 -2.183999
v -0.131303 2.991765 -2.183999
v 0.128697 2.991765 2.183999
v -0.131303 2.991765 2.183999
v -0.131303 -0.911699 2.183999
v 0.128697 -0.911699 2.183999
v -0.131303 0.133136 2.183999
v 0.128697 0.133136 2.183999
v -0.131303 -0.203237 2.183999
v 0.128697 -0.203237 2.183999
v 0.181826 -0.029550 2.183999
v -0.184432 -0.029550 2.183999
v -0.149799 -0.203237 2.183999
v 0.147192 -0.203237 2.183999
v -0.131303 -0.911699 -2.183999
v 0.128697 -0.911699 -2.183999
v -0.131303 0.133136 -2.183999
v 0.128697 0.133136 -2.183999
v 0.128697 -0.203237 -2.183999
v 0.181826 -0.029550 -2.183999
v -0.184432 -0.029550 -2.183999
v -0.149799 -0.203237 -2.183999
v 0.147192 -0.203237 -2.183999
v 0.128697 -0.439391 2.183999
v 0.128697 -0.675545 2.183999
v 0.128697 -0.439391 -2.183999
v 0.128697 -0.675545 -2.183999
v -0.131303 -0.439391 2.183999
v -0.131303 -0.675545 2.183999
v -0.131303 -0.439391 -2.183999
v -0.131303 -0.675545 -2.183999
v 0.162517 -0.439391 2.183999
v 0.162517 -0.439391 -2.183999
v 0.167015 -0.675545 2.183999
v 0.167015 -0.675545 -2.183999
v 0.169563 -0.911699 2.183999
v 0.169563 -0.911699 -2.183999
v 0.144505 -0.203237 -2.183999
v 0.162517 -0.221248 -2.183999
v 0.162517 -0.221248 2.183999
v 0.144505 -0.203237 2.183999
v 0.167015 -0.457402 2.183999
v 0.149003 -0.439391 2.183999
v 0.149003 -0.439391 -2.183999
v 0.167015 -0.457402 -2.183999
v 0.169563 -0.693556 2.183999
v 0.151551 -0.675545 2.183999
v 0.151551 -0.675545 -2.183999
v 0.169563 -0.693556 -2.183999
v -0.150415 -0.439391 2.183999
v -0.150415 -0.439391 -2.183999
v -0.154796 -0.675545 2.183999
v -0.154796 -0.675545 -2.183999
v -0.164763 -0.911699 2.183999
v -0.164763 -0.911699 -2.183999
v -0.150415 -0.224950 2.183999
v -0.150415 -0.224950 -2.183999
v -0.131303 -0.203237 -2.183999
v -0.133083 -0.439391 2.183999
v -0.154796 -0.461104 2.183999
v -0.154796 -0.461104 -2.183999
v -0.133083 -0.439391 -2.183999
v -0.143050 -0.675545 2.183999
v -0.164763 -0.697258 2.183999
v -0.164763 -0.697258 -2.183999
v -0.143050 -0.675545 -2.183999
v -0.216501 -0.962584 -2.118228
v -0.216501 2.992744 -2.118228
v -0.216501 -0.962584 -2.482426
v -0.216501 2.992744 -2.482426
v 0.197748 -0.962584 -2.118228
v 0.197748 2.992744 -2.118228
v 0.197748 -0.962584 -2.482426
v 0.197748 2.992744 -2.482426
v -0.216501 -0.962584 2.118228
v -0.216501 2.992744 2.118228
v -0.216501 -0.962584 2.482427
v -0.216501 2.992744 2.482427
v 0.197748 -0.962584 2.118228
v 0.197748 2.992744 2.118228
v 0.197748 -0.962584 2.482427
v 0.197748 2.992744 2.482427
vt 0.441899 0.250000
vt 0.431864 0.250000
vt 0.431864 0.250000
vt 0.412910 0.250000
vt 0.412910 0.250000
vt 0.412910 0.250000
vt 0.431864 0.500000
vt 0.441899 0.500000
vt 0.441899 0.500000
vt 0.125000 0.500000
vt 0.375000 0.500000
vt 0.375000 0.500000
vt 0.441899 0.250000
vt 0.441899 0.250000
vt 0.441899 0.500000
vt 0.441899 0.500000
vt 0.393955 0.500000
vt 0.393955 0.500000
vt 0.392509 0.500000
vt 0.431864 0.250000
vt 0.431864 0.250000
vt 0.431864 0.500000
vt 0.431864 0.500000
vt 0.412910 0.500000
vt 0.412910 0.500000
vt 0.430419 0.500000
vt 0.375000 0.500000
vt 0.392509 0.500000
vt 0.227288 0.416667
vt 0.227288 0.416667
vt 0.320171 0.340995
vt 0.431864 0.500000
vt 0.431864 0.500000
vt 0.430419 0.500000
vt 0.412910 0.500000
vt 0.393955 0.500000
vt 0.393955 0.500000
vt 0.411464 0.500000
vt 0.412910 0.500000
vt 0.411464 0.500000
vt 0.431864 0.500000
vt 0.412910 0.500000
vt 0.393955 0.500000
vt 0.329576 0.333333
vt 0.422460 0.257662
vt 0.329576 0.333333
vt 0.430122 0.250000
vt 0.412910 0.250000
vt 0.329576 0.333333
vt 0.320171 0.340995
vt 0.329576 0.333333
vt 0.422460 0.257662
vt 0.412910 0.250000
vt 0.227288 0.416667
vt 0.227288 0.416667
vt 0.217883 0.424329
vt 0.411167 0.250000
vt 0.393955 0.250000
vt 0.393955 0.250000
vt 0.393955 0.250000
vt 0.393955 0.250000
vt 0.393955 0.250000
vt 0.125000 0.500000
vt 0.125000 0.500000
vt 0.217883 0.424329
vt 0.392212 0.250000
vt 0.375000 0.250000
vt 0.375000 0.250000
vt 0.412910 0.250000
vt 0.393955 0.250000
vt 0.000000 0.000000
vt 0.000000 0.000000
vt 0.000000 0.000000
vt 0.000000 0.000000
vt 0.000000 0.000000
vt 0.000000 0.000000
vt 0.625000 0.000000
vt 0.375000 0.250000
vt 0.375000 0.000000
vt 0.625000 0.250000
vt 0.375000 0.500000
vt 0.625000 0.500000
vt 0.375000 0.750000
vt 0.625000 0.750000
vt 0.375000 1.000000
vt 0.125000 0.750000
vt 0.125000 0.500000
vt 0.875000 0.500000
vt 0.375000 0.250000
vt 0.625000 0.000000
vt 0.375000 0.000000
vt 0.375000 0.500000
vt 0.625000 0.250000
vt 0.375000 0.750000
vt 0.625000 0.500000
vt 0.375000 1.000000
vt 0.625000 0.750000
vt 0.125000 0.750000
vt 0.125000 0.500000
vt 0.875000 0.500000
vt 0.441899 0.250000
vt 0.375000 0.500000
vt 0.329576 0.333333
vt 0.412910 0.500000
vt 0.393955 0.500000
vt 0.430122 0.250000
vt 0.227288 0.416667
vt 0.329576 0.333333
vt 0.125000 0.500000
vt 0.411167 0.250000
vt 0.227288 0.416667
vt 0.392212 0.250000
vt 0.000000 0.000000
vt 0.000000 0.000000
vt 0.625000 1.000000
vt 0.875000 0.750000
vt 0.625000 1.000000
vt 0.875000 0.750000
vt 0.441899 0.500000
vt 0.441899 0.250000
vt 0.441899 0.500000
vt 0.441899 0.250000
vn -0.9807 -0.1956 0.0000
vn 0.0000 -1.0000 0.0000
vn 0.9807 -0.1956 0.0000
vn -0.9506 0.3104 0.0000
vn 0.9506 0.3104 0.0000
vn 0.0000 0.0000 -1.0000
vn 0.0000 0.0000 1.0000
vn 1.0000 0.0000 0.0000
vn 0.0000 1.0000 0.0000
vn 0.7071 0.7071 0.0000
vn -1.0000 0.0000 0.0000
vn -0.7506 0.6607 0.0000
vn -0.7071 0.7071 0.0000
usemtl LightBrown_House01
s off
f 12/1/1 22/2/1 13/3/1
f 28/4/2 51/5/2 30/6/2
f 14/7/3 20/8/3 11/9/3
f 5/10/2 16/11/2 6/12/2
f 7/13/4 21/14/4 12/1/4
f 11/9/5 18/15/5 8/16/5
f 27/17/6 48/18/6 49/19/6
f 13/3/2 58/20/2 9/21/2
f 10/22/2 23/23/2 14/7/2
f 24/24/7 32/25/7 40/26/7
f 36/27/8 49/19/8 46/28/8
f 31/29/6 53/30/6 61/31/6
f 19/32/6 38/33/6 39/34/6
f 26/35/2 32/25/2 24/24/2
f 10/22/9 38/33/9 19/32/9
f 25/36/7 34/37/7 42/38/7
f 24/24/9 44/39/9 26/35/9
f 34/37/8 45/40/8 42/38/8
f 26/35/6 44/39/6 45/40/6
f 27/17/2 34/37/2 25/36/2
f 25/36/9 48/18/9 27/17/9
f 16/11/2 36/27/2 6/12/2
f 6/12/7 36/27/7 46/28/7
f 41/41/10 39/34/10 38/33/10
f 45/40/10 43/42/10 42/38/10
f 49/19/10 47/43/10 46/28/10
f 32/25/8 39/34/8 40/26/8
f 28/44/7 56/45/7 50/46/7
f 56/47/11 51/5/11 50/48/11
f 28/44/7 59/49/7 60/50/7
f 30/51/6 57/52/6 58/20/6
f 30/6/9 59/53/9 28/4/9
f 29/54/7 63/55/7 64/56/7
f 60/57/11 53/58/11 52/59/11
f 29/60/2 53/58/2 31/61/2
f 31/61/9 63/62/9 29/60/9
f 15/63/6 55/64/6 65/65/6
f 64/66/11 55/67/11 54/68/11
f 5/10/2 55/64/2 15/63/2
f 58/20/12 56/47/12 9/21/12
f 62/69/13 60/57/13 59/53/13
f 66/70/13 64/66/13 63/62/13
f 17/71/6 1/72/6 18/73/6
f 8/74/7 4/75/7 7/76/7
f 68/77/11 69/78/11 67/79/11
f 70/80/6 73/81/6 69/78/6
f 74/82/8 71/83/8 73/81/8
f 72/84/7 67/85/7 71/83/7
f 73/81/2 67/86/2 69/87/2
f 70/88/9 72/84/9 74/82/9
f 77/89/11 76/90/11 75/91/11
f 81/92/7 78/93/7 77/89/7
f 79/94/8 82/95/8 81/92/8
f 75/96/6 80/97/6 79/94/6
f 75/98/2 81/92/2 77/99/2
f 80/97/9 78/100/9 82/95/9
f 12/1/1 21/14/1 22/2/1
f 28/4/2 50/48/2 51/5/2
f 14/7/3 23/23/3 20/8/3
f 5/10/2 15/63/2 16/11/2
f 7/13/4 17/101/4 21/14/4
f 11/9/5 20/8/5 18/15/5
f 37/102/6 16/11/6 49/19/6
f 16/11/6 27/17/6 49/19/6
f 13/3/2 22/2/2 58/20/2
f 10/22/2 19/32/2 23/23/2
f 41/41/7 10/22/7 40/26/7
f 10/22/7 24/24/7 40/26/7
f 36/27/8 37/102/8 49/19/8
f 62/103/6 30/51/6 61/31/6
f 30/51/6 31/29/6 61/31/6
f 33/104/6 26/35/6 39/34/6
f 26/35/6 19/32/6 39/34/6
f 26/35/2 33/104/2 32/25/2
f 10/22/9 41/41/9 38/33/9
f 43/42/7 24/24/7 42/38/7
f 24/24/7 25/36/7 42/38/7
f 24/24/9 43/42/9 44/39/9
f 34/37/8 35/105/8 45/40/8
f 35/105/6 27/17/6 45/40/6
f 27/17/6 26/35/6 45/40/6
f 27/17/2 35/105/2 34/37/2
f 25/36/9 47/43/9 48/18/9
f 16/11/2 37/102/2 36/27/2
f 47/43/7 25/36/7 46/28/7
f 25/36/7 6/12/7 46/28/7
f 41/41/10 40/26/10 39/34/10
f 45/40/10 44/39/10 43/42/10
f 49/19/10 48/18/10 47/43/10
f 32/25/8 33/104/8 39/34/8
f 28/44/7 9/21/7 56/45/7
f 56/47/11 57/106/11 51/5/11
f 52/107/7 29/54/7 60/50/7
f 29/54/7 28/44/7 60/50/7
f 30/51/6 51/108/6 57/52/6
f 30/6/9 62/69/9 59/53/9
f 54/109/7 5/10/7 64/56/7
f 5/10/7 29/54/7 64/56/7
f 60/57/11 61/110/11 53/58/11
f 29/60/2 52/59/2 53/58/2
f 31/61/9 66/70/9 63/62/9
f 66/111/6 31/29/6 65/65/6
f 31/29/6 15/63/6 65/65/6
f 64/66/11 65/112/11 55/67/11
f 5/10/2 54/109/2 55/64/2
f 58/20/12 57/106/12 56/47/12
f 62/69/13 61/110/13 60/57/13
f 66/70/13 65/112/13 64/66/13
f 17/71/6 2/113/6 1/72/6
f 8/74/7 3/114/7 4/75/7
f 68/77/11 70/80/11 69/78/11
f 70/80/6 74/82/6 73/81/6
f 74/82/8 72/84/8 71/83/8
f 72/84/7 68/115/7 67/85/7
f 73/81/2 71/83/2 67/86/2
f 70/88/9 68/116/9 72/84/9
f 77/89/11 78/93/11 76/90/11
f 81/92/7 82/95/7 78/93/7
f 79/94/8 80/97/8 82/95/8
f 75/96/6 76/117/6 80/97/6
f 75/98/2 79/94/2 81/92/2
f 80/97/9 76/118/9 78/100/9
usemtl Cream_House01
f 1/119/9 4/120/9 3/121/9
f 7/13/11 2/122/11 17/101/11
f 18/15/8 3/121/8 8/16/8
f 1/119/9 2/122/9 4/120/9
f 7/13/11 4/120/11 2/122/11
f 18/15/8 1/119/8 3/121/8
