# Blender v2.90.0 OBJ File: 'roof01_house3.blend'
# www.blender.org
mtllib roof01_house3.mtl
o Roof01_house3.001_Cube.003
v -2.239506 -2.350559 1.980866
v 2.239506 -2.350559 1.980866
v 2.239506 1.010553 -0.854431
v -2.239506 1.010553 -0.854431
v 2.239506 1.010553 -1.126435
v -2.239506 1.010553 -1.126435
v -2.239506 -2.130924 1.980866
v 2.239506 -2.130924 1.980866
v 2.239506 1.230189 -0.854431
v -2.239506 1.230189 -0.854431
v 2.239506 1.230189 -1.126435
v -2.239506 1.230189 -1.126435
vt 0.875000 0.750000
vt 0.625000 0.750000
vt 0.875000 0.750000
vt 0.875000 0.750000
vt 0.625000 0.750000
vt 0.625000 0.750000
vt 0.875000 0.750000
vt 0.875000 0.750000
vt 0.625000 0.750000
vt 0.875000 0.750000
vt 0.625000 0.750000
vt 0.625000 0.750000
vn 0.0000 -0.6448 -0.7644
vn 0.0000 -1.0000 0.0000
vn 0.0000 0.6448 0.7644
vn 0.0000 1.0000 0.0000
vn 1.0000 0.0000 0.0000
vn 0.0000 0.0000 1.0000
vn -1.0000 0.0000 0.0000
usemtl DarkGreen_house3
s off
f 4/1/1 2/2/1 1/3/1
f 6/4/2 3/5/2 4/1/2
f 8/6/3 10/7/3 7/8/3
f 9/9/4 12/10/4 10/7/4
f 3/5/5 8/6/5 2/2/5
f 2/2/6 7/8/6 1/3/6
f 5/11/5 9/9/5 3/5/5
f 4/1/7 7/8/7 10/7/7
f 6/4/7 10/7/7 12/10/7
f 4/1/1 3/5/1 2/2/1
f 6/4/2 5/11/2 3/5/2
f 8/6/3 9/9/3 10/7/3
f 9/9/4 11/12/4 12/10/4
f 3/5/5 9/9/5 8/6/5
f 2/2/6 8/6/6 7/8/6
f 5/11/5 11/12/5 9/9/5
f 4/1/7 1/3/7 7/8/7
f 6/4/7 4/1/7 10/7/7
