# Blender v2.90.0 OBJ File: 'Window02_house3.blend'
# www.blender.org
mtllib Window02_house3.mtl
o Window02_house3_Cube.006
v -0.009286 0.276205 1.420633
v -0.009286 -1.490340 1.420633
v -0.009286 -1.490340 0.594449
v -0.009286 0.276205 0.594449
v -0.009286 -1.490340 0.413092
v -0.009286 -1.490340 -0.413092
v -0.009286 0.276205 -0.413092
v -0.009286 0.276205 0.413092
v -0.009286 0.276205 -1.420633
v -0.009286 -1.490340 -1.420633
v -0.009286 0.276205 -0.594449
v 0.022901 -1.490340 0.594449
v 0.022901 0.276205 0.594449
v 0.022901 0.276205 1.420633
v 0.022901 -1.490340 -0.413092
v 0.022901 0.276205 0.413092
v 0.022901 0.276205 -0.594449
v -0.009425 0.406205 1.405520
v -0.009425 1.066416 1.405520
v 0.023040 1.066416 1.405520
v -0.009425 1.599788 0.609562
v -0.009425 0.406205 0.609562
v 0.023040 0.406205 0.397979
v 0.023040 1.599788 -0.609562
v 0.023040 0.406205 -0.609562
v -0.009425 1.696307 0.391933
v -0.009425 1.696307 -0.391933
v -0.009425 0.410205 0.391933
v -0.009425 0.410205 -0.391933
v -0.009425 1.066416 -1.405520
v -0.009425 0.406205 -1.405520
v -0.093508 -1.490339 1.420633
v -0.093508 1.066416 1.405520
v -0.093508 -1.490339 -1.420633
v -0.093508 1.066416 -1.405520
v 0.107123 -1.490339 1.420633
v 0.107123 1.066416 1.405520
v 0.107123 -1.490339 -1.420633
v 0.107123 1.066416 -1.405520
v -0.093508 -1.490339 -0.413092
v -0.093508 -1.490339 0.594449
v -0.093508 1.599788 0.609562
v -0.093508 1.696307 -0.391933
v 0.107123 -1.490339 0.594449
v 0.107123 -1.490339 -0.413092
v 0.107123 1.700307 -0.397979
v 0.107123 1.599788 0.609562
v -0.093508 0.276205 1.420633
v -0.093508 0.276205 -1.420633
v 0.107123 0.276205 -1.420633
v 0.107123 0.276205 1.420633
v 0.107123 0.276205 -0.413092
v 0.107123 0.276205 0.594449
v -0.093508 0.276205 0.594449
v -0.093508 0.276205 -0.413092
v 0.107123 0.406205 1.405520
v 0.107123 -1.550339 1.511312
v 0.107123 -1.490339 0.413092
v 0.107123 0.276205 0.413092
v 0.107123 -1.550339 0.503770
v 0.107123 -1.490339 -0.594449
v 0.107123 0.276205 -0.594449
v 0.107123 0.406205 0.609562
v 0.107123 0.406205 -1.405520
v 0.107123 -1.550339 -1.511312
v 0.107123 -1.550339 -0.503770
v 0.107123 0.406205 -0.397979
v -0.093508 -1.490339 0.413092
v -0.093508 -1.550339 1.511312
v -0.093508 0.276205 0.413092
v -0.093508 0.406205 1.405520
v -0.093508 -1.490339 -0.594449
v -0.093508 -1.550339 0.503770
v -0.093508 0.406205 0.609562
v -0.093508 0.276205 -0.594449
v -0.093508 0.406205 -1.405520
v -0.093508 -1.550339 -1.511312
v -0.093508 -1.550339 -0.503770
v -0.093508 0.410205 -0.391933
v -0.009286 -1.490339 -0.594449
v 0.022901 -1.490339 1.420633
v 0.022901 -1.490339 0.413092
v 0.022901 0.276205 -0.413092
v 0.022901 0.276205 -1.420633
v 0.022901 -1.490339 -1.420633
v 0.022901 -1.490339 -0.594449
v -0.093508 0.336205 1.511312
v -0.093508 1.095152 1.511312
v 0.107123 1.700307 0.397979
v 0.107123 1.095152 1.511312
v -0.093508 1.696307 0.391933
v 0.107123 0.336205 1.511312
v 0.107123 0.406205 0.397979
v -0.093508 0.410205 0.391933
v 0.107123 1.599788 -0.609562
v 0.107123 1.770307 0.503770
v 0.107123 0.406205 -0.609562
v 0.107123 0.336205 0.503770
v 0.107123 1.095152 -1.511312
v 0.107123 1.770307 -0.503770
v 0.107123 0.336205 -1.511312
v 0.107123 0.336205 -0.503770
v -0.093508 1.770307 0.503770
v -0.093508 1.599788 -0.609562
v -0.093508 0.336205 0.503770
v -0.093508 0.406205 -0.609562
v -0.093508 1.770307 -0.503770
v -0.093508 1.095152 -1.511312
v -0.093508 0.336205 -1.511312
v -0.093508 0.336205 -0.503770
v 0.023040 1.599788 0.609562
v 0.023040 0.406205 1.405520
v 0.023040 0.406205 0.609562
v 0.023040 1.700307 -0.397979
v 0.023040 1.700307 0.397979
v 0.023040 0.406205 -0.397979
v 0.023040 1.066416 -1.405520
v 0.023040 0.406205 -1.405520
v -0.009425 1.599788 -0.609562
v -0.009425 0.406205 -0.609562
v -0.305469 0.351473 -2.720044
v 0.271431 -2.948262 2.720044
v 0.271431 0.351473 -2.720044
v -0.305469 -2.948262 2.720044
v -0.305469 0.351473 2.720044
v 0.271431 -2.948262 -2.720044
v 0.271431 0.351473 2.720044
v -0.305469 -2.948262 -2.720044
v 0.271431 3.351472 0.272004
v 0.271431 3.351472 -0.272004
v -0.305469 3.351472 -0.272004
v -0.305469 3.351472 0.272004
v -0.305469 1.770306 0.503771
v 0.271431 1.770306 0.503771
v -0.305469 1.095152 1.511312
v 0.271431 1.095152 1.511312
v -0.305469 1.770306 -0.503770
v 0.271431 1.770306 -0.503770
v -0.305469 1.095152 -1.511312
v 0.271431 1.095152 -1.511312
v 0.271431 0.351473 -1.511312
v 0.271431 0.351473 1.511311
v -0.305469 -1.550339 1.511312
v 0.271431 -1.550339 1.511312
v -0.305469 0.351473 -1.511312
v -0.305469 -1.550339 -1.511312
v 0.271431 -1.550339 -1.511312
v -0.305469 0.351473 1.511311
v -0.305469 -1.550339 0.503771
v 0.271431 -1.550339 0.503771
v -0.305469 -1.550339 -0.503770
v 0.271431 -1.550339 -0.503770
v -0.390134 0.363719 2.789541
v -0.390134 -2.960508 2.789541
v -0.390134 0.363719 2.440416
v -0.390134 -2.960508 2.440416
v 0.356096 0.363719 2.789541
v 0.356096 -2.960508 2.789541
v 0.356096 0.363719 2.440416
v 0.356096 -2.960508 2.440416
v -0.390134 0.363719 -2.789541
v -0.390134 -2.960508 -2.789541
v -0.390134 0.363719 -2.440416
v -0.390134 -2.960508 -2.440416
v 0.356096 0.363719 -2.789541
v 0.356096 -2.960508 -2.789541
v 0.356096 0.363719 -2.440416
v 0.356096 -2.960508 -2.440416
vt 0.506450 0.092583
vt 0.506450 0.157417
vt 0.506450 0.157417
vt 0.625000 0.250000
vt 0.500000 0.500000
vt 0.500000 0.250000
vt 0.507284 0.074583
vt 0.615961 0.074583
vt 0.615961 0.074583
vt 0.625000 0.750000
vt 0.500000 1.000000
vt 0.500000 0.750000
vt 0.375000 0.666667
vt 0.125000 0.750000
vt 0.125000 0.666667
vt 0.875000 0.666667
vt 0.625000 0.666667
vt 0.875000 0.500000
vt 0.625000 0.583333
vt 0.625000 0.500000
vt 0.875000 0.583333
vt 0.375000 0.500000
vt 0.125000 0.583333
vt 0.125000 0.500000
vt 0.375000 0.583333
vt 0.615961 0.175417
vt 0.507284 0.175417
vt 0.507284 0.175417
vt 0.510056 0.508750
vt 0.507284 0.574583
vt 0.507284 0.574583
vt 0.618550 0.157417
vt 0.618550 0.157417
vt 0.506101 0.592083
vt 0.506101 0.657917
vt 0.506101 0.657917
vt 0.378976 0.590833
vt 0.378976 0.659167
vt 0.378976 0.659167
vt 0.378976 0.742500
vt 0.496024 0.742500
vt 0.496024 0.742500
vt 0.496024 0.242500
vt 0.496024 0.174167
vt 0.496024 0.174167
vt 0.496024 0.159167
vt 0.496024 0.090833
vt 0.496024 0.090833
vt 0.375000 1.000000
vt 0.375000 0.750000
vt 0.378976 0.174167
vt 0.378976 0.174167
vt 0.375000 0.250000
vt 0.496024 0.075833
vt 0.496024 0.007500
vt 0.496024 0.007500
vt 0.378976 0.674167
vt 0.496024 0.674167
vt 0.500000 0.666667
vt 0.496024 0.590833
vt 0.500000 0.583333
vt 0.496024 0.659167
vt 0.496024 0.507500
vt 0.378976 0.575833
vt 0.378976 0.507500
vt 0.496024 0.575833
vt 0.378976 0.075833
vt 0.375000 0.000000
vt 0.378976 0.007500
vt 0.375000 0.083333
vt 0.500000 0.000000
vt 0.500000 0.083333
vt 0.378976 0.159167
vt 0.378976 0.090833
vt 0.375000 0.166667
vt 0.500000 0.166667
vt 0.378976 0.242500
vt 0.378976 0.742500
vt 0.378976 0.507500
vt 0.378976 0.590833
vt 0.378976 0.075833
vt 0.378976 0.674167
vt 0.378976 0.575833
vt 0.378976 0.159167
vt 0.496024 0.659167
vt 0.496024 0.075833
vt 0.496024 0.242500
vt 0.496024 0.674167
vt 0.496024 0.575833
vt 0.378976 0.090833
vt 0.496024 0.590833
vt 0.378976 0.007500
vt 0.378976 0.242500
vt 0.496024 0.507500
vt 0.496024 0.159167
vt 0.510056 0.008750
vt 0.625000 0.000000
vt 0.613026 0.008750
vt 0.615961 0.675417
vt 0.613026 0.741250
vt 0.625000 0.083333
vt 0.510056 0.741250
vt 0.507284 0.675417
vt 0.618899 0.592083
vt 0.618899 0.657917
vt 0.615961 0.574583
vt 0.613026 0.508750
vt 0.618550 0.092583
vt 0.625000 0.166667
vt 0.613026 0.241250
vt 0.510056 0.241250
vt 0.510056 0.241250
vt 0.507284 0.074583
vt 0.510056 0.741250
vt 0.613026 0.008750
vt 0.510056 0.008750
vt 0.615961 0.675417
vt 0.618899 0.592083
vt 0.615961 0.574583
vt 0.613026 0.508750
vt 0.506101 0.592083
vt 0.618550 0.092583
vt 0.510056 0.508750
vt 0.615961 0.175417
vt 0.613026 0.741250
vt 0.618899 0.657917
vt 0.506450 0.092583
vt 0.613026 0.241250
vt 0.507284 0.675417
vt 0.625000 1.000000
vt 0.875000 0.750000
vt 0.875000 0.750000
vt 0.625000 0.750000
vt 0.625000 0.750000
vt 0.625000 0.750000
vt 0.875000 0.750000
vt 0.875000 0.750000
vt 0.875000 0.750000
vt 0.625000 0.750000
vt 0.625000 0.750000
vt 0.625000 0.750000
vt 0.875000 0.750000
vt 0.875000 0.750000
vt 0.625000 0.750000
vt 0.625000 0.750000
vt 0.625000 0.750000
vt 0.625000 0.750000
vt 0.875000 0.750000
vt 0.875000 0.750000
vt 0.875000 0.750000
vt 0.820377 0.666667
vt 0.690362 0.583333
vt 0.690362 0.666667
vt 0.625000 0.434638
vt 0.625000 0.304623
vt 0.554722 0.304623
vt 0.179623 0.666667
vt 0.309638 0.583333
vt 0.179623 0.583333
vt 0.820377 0.750000
vt 0.690362 0.750000
vt 0.820377 0.583333
vt 0.690362 0.500000
vt 0.179623 0.500000
vt 0.554722 0.945377
vt 0.625000 0.815362
vt 0.554722 0.815362
vt 0.309638 0.750000
vt 0.179623 0.750000
vt 0.625000 0.750000
vt 0.625000 0.750000
vt 0.625000 0.750000
vt 0.625000 0.750000
vt 0.875000 0.750000
vt 0.875000 0.750000
vt 0.875000 0.750000
vt 0.875000 0.750000
vt 0.875000 0.750000
vt 0.625000 0.750000
vt 0.625000 0.750000
vt 0.875000 0.750000
vt 0.875000 0.750000
vt 0.375000 0.304623
vt 0.375000 0.434638
vt 0.554722 0.434638
vt 0.309638 0.666667
vt 0.820377 0.500000
vt 0.309638 0.500000
vt 0.375000 0.815362
vt 0.375000 0.945377
vt 0.625000 0.945377
vt 0.375000 0.250000
vt 0.625000 0.000000
vt 0.375000 0.000000
vt 0.375000 0.500000
vt 0.625000 0.250000
vt 0.375000 0.750000
vt 0.625000 0.500000
vt 0.375000 1.000000
vt 0.625000 0.750000
vt 0.125000 0.750000
vt 0.125000 0.500000
vt 0.875000 0.500000
vt 0.625000 0.000000
vt 0.375000 0.250000
vt 0.375000 0.000000
vt 0.625000 0.250000
vt 0.375000 0.500000
vt 0.625000 0.500000
vt 0.375000 0.750000
vt 0.625000 0.750000
vt 0.375000 1.000000
vt 0.125000 0.750000
vt 0.125000 0.500000
vt 0.875000 0.500000
vt 0.625000 1.000000
vt 0.875000 0.750000
vt 0.625000 1.000000
vt 0.875000 0.750000
vn 0.0000 1.0000 0.0000
vn 0.0000 0.0000 -1.0000
vn -0.0000 0.0000 1.0000
vn 0.0000 -1.0000 0.0000
vn 0.0000 0.8307 0.5567
vn 0.0000 0.8307 -0.5567
vn 1.0000 0.0000 0.0000
vn -1.0000 -0.0000 0.0000
vn 0.0000 -0.8307 -0.5567
vn 0.0000 -0.8307 0.5567
vn 0.0000 0.6322 0.7748
vn 0.0000 0.6322 -0.7748
usemtl Wood_house03
s off
f 94/1/1 29/2/1 79/3/1
f 108/4/2 101/5/2 109/6/2
f 74/7/3 21/8/3 42/9/3
f 90/10/3 87/11/3 92/12/3
f 60/13/4 69/14/4 73/15/4
f 103/16/5 90/10/5 96/17/5
f 108/18/6 100/19/6 99/20/6
f 107/21/1 96/17/1 100/19/1
f 65/22/4 78/23/4 77/24/4
f 66/25/4 73/15/4 78/23/4
f 104/26/2 120/27/2 106/28/2
f 64/29/1 25/30/1 97/31/1
f 79/3/3 27/32/3 43/33/3
f 67/34/1 23/35/1 93/36/1
f 45/37/1 5/38/1 58/39/1
f 36/40/2 1/41/2 51/42/2
f 49/43/4 17/44/4 75/45/4
f 55/46/4 16/47/4 70/48/4
f 92/12/3 69/49/3 57/50/3
f 72/51/2 17/44/2 86/52/2
f 109/6/2 65/22/2 77/53/2
f 54/54/4 14/55/4 48/56/4
f 51/42/7 57/50/7 36/40/7
f 36/40/7 60/13/7 44/57/7
f 53/58/7 60/13/7 98/59/7
f 53/58/7 92/12/7 51/42/7
f 58/39/7 66/25/7 45/37/7
f 52/60/7 66/25/7 102/61/7
f 59/62/7 60/13/7 58/39/7
f 52/60/7 98/59/7 59/62/7
f 50/63/7 65/22/7 101/5/7
f 61/64/7 65/22/7 38/65/7
f 62/66/7 66/25/7 61/64/7
f 50/63/7 102/61/7 62/66/7
f 41/67/8 69/68/8 32/69/8
f 54/54/8 73/70/8 41/67/8
f 48/56/8 69/68/8 87/71/8
f 48/56/8 105/72/8 54/54/8
f 40/73/8 73/70/8 68/74/8
f 70/48/8 73/70/8 105/72/8
f 55/46/8 78/75/8 40/73/8
f 70/48/8 110/76/8 55/46/8
f 49/43/8 77/53/8 34/77/8
f 34/77/8 78/75/8 72/51/8
f 75/45/8 78/75/8 110/76/8
f 75/45/8 109/6/8 49/43/8
f 44/57/1 2/78/1 36/40/1
f 50/63/3 10/79/3 38/65/3
f 52/60/3 6/80/3 45/37/3
f 32/69/1 12/81/1 41/67/1
f 53/58/3 3/82/3 44/57/3
f 38/65/1 80/83/1 61/64/1
f 68/74/1 15/84/1 40/73/1
f 58/39/2 8/85/2 59/62/2
f 41/67/3 13/86/3 54/54/3
f 34/77/3 84/87/3 49/43/3
f 51/42/4 4/88/4 53/58/4
f 61/64/2 11/89/2 62/66/2
f 68/74/2 16/47/2 82/90/2
f 59/62/4 7/91/4 52/60/4
f 32/69/2 14/55/2 81/92/2
f 72/51/1 85/93/1 34/77/1
f 62/66/4 9/94/4 50/63/4
f 40/73/3 83/95/3 55/46/3
f 71/96/8 88/97/8 33/98/8
f 47/99/7 90/10/7 37/100/7
f 42/9/8 88/97/8 103/101/8
f 56/102/7 90/10/7 92/12/7
f 47/99/7 98/59/7 96/17/7
f 42/9/8 105/72/8 74/7/8
f 74/7/8 87/71/8 71/96/8
f 56/102/7 98/59/7 63/103/7
f 46/104/7 96/17/7 89/105/7
f 67/34/7 100/19/7 46/104/7
f 89/105/7 98/59/7 93/36/7
f 93/36/7 102/61/7 67/34/7
f 95/106/7 99/20/7 100/19/7
f 64/29/7 99/20/7 39/107/7
f 95/106/7 102/61/7 97/31/7
f 97/31/7 101/5/7 64/29/7
f 91/108/8 107/109/8 43/33/8
f 94/1/8 103/101/8 91/108/8
f 43/33/8 110/76/8 79/3/8
f 79/3/8 105/72/8 94/1/8
f 104/26/8 108/4/8 35/110/8
f 76/111/8 108/4/8 109/6/8
f 104/26/8 110/76/8 107/109/8
f 76/111/8 110/76/8 106/28/8
f 106/28/1 31/112/1 76/111/1
f 71/96/1 22/113/1 74/7/1
f 63/103/1 112/114/1 56/102/1
f 71/96/2 19/115/2 18/116/2
f 37/100/9 111/117/9 47/99/9
f 89/105/4 114/118/4 46/104/4
f 39/107/10 24/119/10 117/120/10
f 33/98/9 21/8/9 19/115/9
f 46/104/3 116/121/3 67/34/3
f 43/33/4 26/122/4 91/108/4
f 39/107/3 118/123/3 64/29/3
f 35/110/10 119/124/10 104/26/10
f 56/102/2 20/125/2 37/100/2
f 93/36/2 115/126/2 89/105/2
f 94/1/2 26/122/2 28/127/2
f 97/31/2 24/119/2 95/106/2
f 76/111/3 30/128/3 35/110/3
f 47/99/3 113/129/3 63/103/3
f 94/1/1 28/127/1 29/2/1
f 108/4/2 99/20/2 101/5/2
f 74/7/3 22/113/3 21/8/3
f 90/10/3 88/130/3 87/11/3
f 60/13/4 57/50/4 69/14/4
f 103/16/5 88/131/5 90/10/5
f 108/18/6 107/21/6 100/19/6
f 107/21/1 103/16/1 96/17/1
f 65/22/4 66/25/4 78/23/4
f 66/25/4 60/13/4 73/15/4
f 104/26/2 119/124/2 120/27/2
f 64/29/1 118/123/1 25/30/1
f 79/3/3 29/2/3 27/32/3
f 67/34/1 116/121/1 23/35/1
f 45/37/1 6/80/1 5/38/1
f 36/40/2 2/78/2 1/41/2
f 49/43/4 84/87/4 17/44/4
f 55/46/4 83/95/4 16/47/4
f 92/12/3 87/11/3 69/49/3
f 72/51/2 75/45/2 17/44/2
f 109/6/2 101/5/2 65/22/2
f 54/54/4 13/86/4 14/55/4
f 51/42/7 92/12/7 57/50/7
f 36/40/7 57/50/7 60/13/7
f 53/58/7 44/57/7 60/13/7
f 53/58/7 98/59/7 92/12/7
f 58/39/7 60/13/7 66/25/7
f 52/60/7 45/37/7 66/25/7
f 59/62/7 98/59/7 60/13/7
f 52/60/7 102/61/7 98/59/7
f 50/63/7 38/65/7 65/22/7
f 61/64/7 66/25/7 65/22/7
f 62/66/7 102/61/7 66/25/7
f 50/63/7 101/5/7 102/61/7
f 41/67/8 73/70/8 69/68/8
f 54/54/8 105/72/8 73/70/8
f 48/56/8 32/69/8 69/68/8
f 48/56/8 87/71/8 105/72/8
f 40/73/8 78/75/8 73/70/8
f 70/48/8 68/74/8 73/70/8
f 55/46/8 110/76/8 78/75/8
f 70/48/8 105/72/8 110/76/8
f 49/43/8 109/6/8 77/53/8
f 34/77/8 77/53/8 78/75/8
f 75/45/8 72/51/8 78/75/8
f 75/45/8 110/76/8 109/6/8
f 44/57/1 3/82/1 2/78/1
f 50/63/3 9/94/3 10/79/3
f 52/60/3 7/91/3 6/80/3
f 32/69/1 81/92/1 12/81/1
f 53/58/3 4/88/3 3/82/3
f 38/65/1 10/79/1 80/83/1
f 68/74/1 82/90/1 15/84/1
f 58/39/2 5/38/2 8/85/2
f 41/67/3 12/81/3 13/86/3
f 34/77/3 85/93/3 84/87/3
f 51/42/4 1/41/4 4/88/4
f 61/64/2 80/83/2 11/89/2
f 68/74/2 70/48/2 16/47/2
f 59/62/4 8/85/4 7/91/4
f 32/69/2 48/56/2 14/55/2
f 72/51/1 86/52/1 85/93/1
f 62/66/4 11/89/4 9/94/4
f 40/73/3 15/84/3 83/95/3
f 71/96/8 87/71/8 88/97/8
f 47/99/7 96/17/7 90/10/7
f 42/9/8 33/98/8 88/97/8
f 56/102/7 37/100/7 90/10/7
f 47/99/7 63/103/7 98/59/7
f 42/9/8 103/101/8 105/72/8
f 74/7/8 105/72/8 87/71/8
f 56/102/7 92/12/7 98/59/7
f 46/104/7 100/19/7 96/17/7
f 67/34/7 102/61/7 100/19/7
f 89/105/7 96/17/7 98/59/7
f 93/36/7 98/59/7 102/61/7
f 95/106/7 39/107/7 99/20/7
f 64/29/7 101/5/7 99/20/7
f 95/106/7 100/19/7 102/61/7
f 97/31/7 102/61/7 101/5/7
f 91/108/8 103/101/8 107/109/8
f 94/1/8 105/72/8 103/101/8
f 43/33/8 107/109/8 110/76/8
f 79/3/8 110/76/8 105/72/8
f 104/26/8 107/109/8 108/4/8
f 76/111/8 35/110/8 108/4/8
f 104/26/8 106/28/8 110/76/8
f 76/111/8 109/6/8 110/76/8
f 106/28/1 120/27/1 31/112/1
f 71/96/1 18/116/1 22/113/1
f 63/103/1 113/129/1 112/114/1
f 71/96/2 33/98/2 19/115/2
f 37/100/9 20/125/9 111/117/9
f 89/105/4 115/126/4 114/118/4
f 39/107/10 95/106/10 24/119/10
f 33/98/9 42/9/9 21/8/9
f 46/104/3 114/118/3 116/121/3
f 43/33/4 27/32/4 26/122/4
f 39/107/3 117/120/3 118/123/3
f 35/110/10 30/128/10 119/124/10
f 56/102/2 112/114/2 20/125/2
f 93/36/2 23/35/2 115/126/2
f 94/1/2 91/108/2 26/122/2
f 97/31/2 25/30/2 24/119/2
f 76/111/3 31/112/3 30/128/3
f 47/99/3 111/117/3 113/129/3
usemtl Window_house03
f 15/84/7 16/47/7 82/90/7
f 81/92/7 13/86/7 14/55/7
f 5/38/8 7/91/8 6/80/8
f 80/83/8 9/94/8 10/79/8
f 2/78/8 4/88/8 3/82/8
f 85/93/7 17/44/7 86/52/7
f 120/27/8 30/128/8 31/112/8
f 113/129/7 20/125/7 112/114/7
f 117/120/7 25/30/7 118/123/7
f 116/121/7 115/126/7 23/35/7
f 19/115/8 22/113/8 18/116/8
f 26/122/8 29/2/8 28/127/8
f 15/84/7 83/95/7 16/47/7
f 81/92/7 12/81/7 13/86/7
f 5/38/8 8/85/8 7/91/8
f 80/83/8 11/89/8 9/94/8
f 2/78/8 1/41/8 4/88/8
f 85/93/7 84/87/7 17/44/7
f 120/27/8 119/124/8 30/128/8
f 113/129/7 111/117/7 20/125/7
f 117/120/7 24/119/7 25/30/7
f 116/121/7 114/118/7 115/126/7
f 19/115/8 21/8/8 22/113/8
f 26/122/8 27/32/8 29/2/8
usemtl Cream_house03
f 124/132/4 126/133/4 122/134/4
f 127/135/11 132/136/11 125/137/11
f 122/134/3 125/137/3 124/132/3
f 128/138/2 123/139/2 126/133/2
f 150/140/7 144/141/7 122/134/7
f 151/142/8 146/143/8 128/138/8
f 130/144/1 132/136/1 129/145/1
f 134/146/7 138/147/7 130/144/7
f 137/148/8 133/149/8 132/136/8
f 121/150/12 130/144/12 123/139/12
f 133/151/4 138/152/4 134/153/4
f 140/154/3 139/155/3 145/156/3
f 149/157/1 152/158/1 151/159/1
f 135/160/9 134/153/9 136/161/9
f 137/162/10 140/163/10 138/152/10
f 152/158/1 146/164/1 151/159/1
f 148/165/2 136/166/2 142/167/2
f 144/168/1 149/157/1 143/169/1
f 124/132/4 128/138/4 126/133/4
f 127/135/11 129/145/11 132/136/11
f 122/134/3 127/135/3 125/137/3
f 128/138/2 121/150/2 123/139/2
f 126/133/7 123/139/7 147/170/7
f 123/139/7 141/171/7 147/170/7
f 147/170/7 152/172/7 126/133/7
f 152/172/7 150/140/7 122/134/7
f 142/173/7 127/135/7 144/141/7
f 127/135/7 122/134/7 144/141/7
f 152/172/7 122/134/7 126/133/7
f 124/132/8 125/137/8 143/174/8
f 125/137/8 148/175/8 143/174/8
f 143/174/8 149/176/8 124/132/8
f 149/176/8 151/142/8 128/138/8
f 145/177/8 121/150/8 146/143/8
f 121/150/8 128/138/8 146/143/8
f 149/176/8 128/138/8 124/132/8
f 130/144/1 131/178/1 132/136/1
f 127/135/7 142/173/7 136/179/7
f 127/135/7 136/179/7 129/145/7
f 136/179/7 134/146/7 129/145/7
f 130/144/7 129/145/7 134/146/7
f 140/180/7 141/171/7 123/139/7
f 138/147/7 140/180/7 130/144/7
f 140/180/7 123/139/7 130/144/7
f 121/150/8 145/177/8 139/181/8
f 121/150/8 139/181/8 131/178/8
f 139/181/8 137/148/8 131/178/8
f 132/136/8 131/178/8 137/148/8
f 135/182/8 148/175/8 125/137/8
f 133/149/8 135/182/8 132/136/8
f 135/182/8 125/137/8 132/136/8
f 121/150/12 131/178/12 130/144/12
f 133/151/4 137/162/4 138/152/4
f 145/156/3 146/183/3 147/184/3
f 147/184/3 141/185/3 145/156/3
f 141/185/3 140/154/3 145/156/3
f 149/157/1 150/186/1 152/158/1
f 135/160/9 133/151/9 134/153/9
f 137/162/10 139/187/10 140/163/10
f 152/158/1 147/188/1 146/164/1
f 142/167/2 144/189/2 143/190/2
f 148/165/2 135/191/2 136/166/2
f 142/167/2 143/190/2 148/165/2
f 144/168/1 150/186/1 149/157/1
usemtl Green_house03
f 155/192/8 154/193/8 153/194/8
f 159/195/2 156/196/2 155/192/2
f 157/197/7 160/198/7 159/195/7
f 153/199/3 158/200/3 157/197/3
f 153/201/1 159/195/1 155/202/1
f 158/200/4 156/203/4 160/198/4
f 162/204/8 163/205/8 161/206/8
f 164/207/3 167/208/3 163/205/3
f 168/209/7 165/210/7 167/208/7
f 166/211/2 161/212/2 165/210/2
f 167/208/1 161/213/1 163/214/1
f 164/215/4 166/211/4 168/209/4
f 155/192/8 156/196/8 154/193/8
f 159/195/2 160/198/2 156/196/2
f 157/197/7 158/200/7 160/198/7
f 153/199/3 154/216/3 158/200/3
f 153/201/1 157/197/1 159/195/1
f 158/200/4 154/217/4 156/203/4
f 162/204/8 164/207/8 163/205/8
f 164/207/3 168/209/3 167/208/3
f 168/209/7 166/211/7 165/210/7
f 166/211/2 162/218/2 161/212/2
f 167/208/1 165/210/1 161/213/1
f 164/215/4 162/219/4 166/211/4
